<?xml version="1.0" encoding="UTF-8"?>
<svg version="1.1" xmlns="http://www.w3.org/2000/svg" width="379" height="316">
<path d="M0 0 C125.07 0 250.14 0 379 0 C379 104.28 379 208.56 379 316 C253.93 316 128.86 316 0 316 C0 211.72 0 107.44 0 0 Z " fill="#FDFDFD" transform="translate(0,0)"/>
<path d="M0 0 C0.91909602 -0.00367669 1.83819203 -0.00735338 2.78513944 -0.01114148 C5.87803597 -0.02219199 8.97089892 -0.0260245 12.06381226 -0.02983093 C14.27622586 -0.0360946 16.48863841 -0.04274131 18.7010498 -0.04974365 C24.72194193 -0.06716339 30.74282611 -0.07770829 36.7637372 -0.08594918 C40.5249206 -0.09109776 44.28610152 -0.09717359 48.04728317 -0.10346031 C58.46494278 -0.12033175 68.88260082 -0.13496599 79.30027199 -0.14220905 C82.00335313 -0.14411889 84.70643427 -0.14603923 87.40951538 -0.147995 C88.41724784 -0.14872061 88.41724784 -0.14872061 89.44533853 -0.14946087 C100.32228448 -0.1577567 111.19912029 -0.18308579 122.07601817 -0.21557567 C133.24858485 -0.24867598 144.42111173 -0.266328 155.59373128 -0.26985329 C161.86449812 -0.27220429 168.13509092 -0.28117136 174.40581131 -0.30631447 C180.3073422 -0.32959441 186.20858448 -0.33382852 192.11014938 -0.32355309 C194.27365834 -0.32305759 196.4371815 -0.32938211 198.60064697 -0.34310913 C201.5601184 -0.3608327 204.51855461 -0.35371917 207.47802734 -0.34057617 C208.32911973 -0.35154542 209.18021211 -0.36251466 210.05709517 -0.37381631 C217.55948988 -0.29367701 223.19412842 2.17785821 229.3699646 6.33467102 C235.18436401 12.28121587 238.25445397 18.88937957 238.23348999 27.19111633 C238.23341446 28.19185181 238.23333893 29.19258728 238.23326111 30.22364807 C238.22809982 31.29669189 238.22293854 32.36973572 238.21762085 33.47529602 C238.21549843 35.1315097 238.21549843 35.1315097 238.21333313 36.82118225 C238.20773718 40.34653944 238.19518539 43.87183304 238.1824646 47.39717102 C238.17744908 49.7877951 238.17288626 52.17842018 238.16879272 54.56904602 C238.15776907 60.4284427 238.14103493 66.28780232 238.1199646 72.14717102 C239.3987146 72.12654602 240.6774646 72.10592102 241.9949646 72.08467102 C245.8699646 72.02217102 245.8699646 72.02217102 248.1199646 73.14717102 C248.14310223 83.15217792 248.16088696 93.15717848 248.17177677 103.16220665 C248.17700248 107.80759499 248.18409449 112.45296507 248.19540405 117.0983429 C248.20624399 121.57869777 248.2122438 126.05903504 248.21484184 130.53940201 C248.21669409 132.25147911 248.22031089 133.96355521 248.22569466 135.67562485 C248.23291974 138.06769161 248.23395492 140.459685 248.23348999 142.85176086 C248.23708527 143.56457718 248.24068054 144.27739349 248.24438477 145.0118103 C248.23401676 149.9190667 248.23401676 149.9190667 247.1199646 152.14717102 C244.1499646 152.14717102 241.1799646 152.14717102 238.1199646 152.14717102 C238.13567505 153.54886536 238.1513855 154.95055969 238.16757202 156.39472961 C238.22217355 161.63164954 238.2564242 166.86854466 238.28475952 172.10566711 C238.29977754 174.36547589 238.32019805 176.62525586 238.34628296 178.88496399 C238.38297455 182.14691816 238.39976135 185.40848449 238.41293335 188.67060852 C238.42841721 189.66893707 238.44390106 190.66726562 238.45985413 191.69584656 C238.46227462 201.95325232 236.32303204 210.57606364 229.1199646 218.14717102 C222.37778528 223.48472965 216.18348174 224.44465306 207.87243652 224.41459656 C206.95007167 224.41912767 206.02770681 224.42365878 205.07739151 224.4283272 C201.99143373 224.44097198 198.90565242 224.43935078 195.81967163 224.43769836 C193.60519179 224.44368351 191.39071403 224.45048903 189.17623901 224.45805359 C183.16384105 224.47572102 177.15150002 224.48040926 171.13907862 224.48168516 C166.11916244 224.48358481 161.09925952 224.49094301 156.07934844 224.49802935 C144.91227942 224.51338343 133.74523143 224.51936702 122.5781541 224.51801865 C121.90858731 224.51793874 121.23902051 224.51785882 120.54916382 224.51777649 C119.87877637 224.51769473 119.20838893 224.51761297 118.51768671 224.51752873 C107.65318213 224.51671582 96.78881619 224.53585651 85.92435171 224.56405322 C74.75959765 224.5927999 63.59489434 224.60622651 52.43009841 224.60486567 C46.16556648 224.60435574 39.9011915 224.6100562 33.63669205 224.63122177 C27.74495997 224.65058463 21.8535349 224.65074173 15.96179199 224.63618851 C13.80109077 224.63409698 11.64037042 224.63882168 9.479702 224.65090942 C6.52659411 224.66635875 3.57454525 224.65705542 0.62145996 224.64164734 C-0.2304989 224.65193447 -1.08245777 224.66222159 -1.96023357 224.67282045 C-10.43285656 224.5753469 -16.89731068 221.12989574 -22.8800354 215.14717102 C-28.45197703 207.926369 -28.55945607 201.06586501 -28.3175354 192.20967102 C-28.31173462 190.97926086 -28.30593384 189.74885071 -28.29995728 188.4811554 C-28.17559814 179.44273376 -28.17559814 179.44273376 -25.8800354 177.14717102 C-21.32447984 177.70272658 -21.32447984 177.70272658 -19.8800354 179.14717102 C-19.78323076 180.66433988 -19.74802767 182.18553511 -19.7394104 183.70576477 C-20.15838372 198.45509554 -20.15838372 198.45509554 -13.8800354 211.14717102 C-8.31958191 214.95954626 -4.36470341 215.72638394 2.29792786 215.65510559 C3.20072938 215.66134555 4.10353089 215.66758552 5.03369004 215.67401457 C8.04766147 215.6899222 11.06082167 215.67734886 14.07479858 215.66474915 C16.24016795 215.67017128 18.40553363 215.67729445 20.57089233 215.68598938 C26.44488669 215.7042157 32.31859983 215.6971576 38.19259906 215.68447304 C44.34279811 215.6743406 50.49297321 215.68373953 56.64317322 215.6900177 C66.97215086 215.69729392 77.30101409 215.68770756 87.62997437 215.6686554 C99.56622093 215.64689257 111.50219413 215.653934 123.43843406 215.67596102 C133.69086845 215.69412254 143.94322062 215.69666945 154.1956659 215.68620634 C160.31708351 215.67997485 166.4383727 215.67912633 172.55978203 215.69235229 C178.31613053 215.70392078 184.07212724 215.69586637 189.82843781 215.67277527 C191.9391401 215.66749333 194.04987209 215.6689931 196.16056252 215.67782593 C199.04577845 215.68878527 201.92987287 215.67501267 204.8150177 215.65510559 C205.6468397 215.66402848 206.47866171 215.67295136 207.33569044 215.68214464 C212.49159073 215.61332169 216.02497736 214.5879839 220.50177914 212.00431395 C222.1199646 211.14717102 222.1199646 211.14717102 224.1199646 211.14717102 C227.94098562 204.05098912 228.4461271 197.76290961 228.5340271 189.84248352 C228.55339325 188.763367 228.5727594 187.68425049 228.5927124 186.57243347 C228.65230402 183.13909207 228.69881221 179.70571678 228.7449646 176.27217102 C228.78316313 173.93882338 228.82221595 171.60548956 228.8621521 169.27217102 C228.95798877 163.5639607 229.04309572 157.85566658 229.1199646 152.14717102 C228.04120811 152.15716377 228.04120811 152.15716377 226.94065857 152.1673584 C220.12993868 152.22771943 213.3192593 152.27327166 206.50833988 152.30260754 C203.00758929 152.31819701 199.50706157 152.33931043 196.00643921 152.37348938 C191.97264589 152.41262307 187.93908304 152.42693564 183.90512085 152.44013977 C182.66101944 152.45562363 181.41691803 152.47110748 180.13511658 152.48706055 C167.96045587 152.48939734 158.9083062 149.5318815 149.95199585 141.10810852 C140.64066879 131.22028278 137.59957047 121.55501875 137.84262085 108.26826477 C138.36620189 96.90837967 144.34002813 88.62159859 152.2449646 80.95967102 C161.72195839 73.03695651 171.35261231 71.40991995 183.4168396 71.65888977 C184.73162292 71.66596451 186.04640625 71.67303925 187.40103149 71.68032837 C190.8537475 71.6991886 194.30536892 71.74809811 197.75765991 71.80384827 C201.29754844 71.85550233 204.83761829 71.87793957 208.3777771 71.9030304 C215.29228206 71.95624541 222.20607042 72.04129319 229.1199646 72.14717102 C229.07823592 65.01173895 229.00585074 57.8770831 228.91244507 50.74214172 C228.88427115 48.31643181 228.86303889 45.8906307 228.84896851 43.46479797 C228.82749033 39.97172986 228.78081198 36.47975411 228.7293396 32.98701477 C228.72749664 31.36786415 228.72749664 31.36786415 228.72561646 29.71600342 C228.60213368 23.32520196 227.90706474 19.35716234 224.1199646 14.14717102 C218.54645316 9.47261304 212.46448757 8.99952508 205.49221802 9.00672913 C204.60029574 9.003758 203.70837346 9.00078688 202.78942323 8.99772573 C199.78859168 8.98902603 196.78779996 8.9875294 193.78695679 8.98603821 C191.640263 8.98141092 189.49357005 8.97638638 187.34687805 8.97099304 C181.50586319 8.95785807 175.66485984 8.95142189 169.82383251 8.94698238 C166.1759011 8.9440533 162.52797285 8.93994879 158.88004303 8.93547821 C147.47036114 8.9218001 136.06068645 8.9121351 124.65099692 8.90827632 C111.47319362 8.9037953 98.29549403 8.88624664 85.11772227 8.85727572 C74.93674276 8.83566897 64.75579244 8.82557257 54.57479024 8.8242352 C48.49191508 8.82318641 42.40913737 8.81726285 36.32628632 8.79941559 C30.60372377 8.78295249 24.88133211 8.78077092 19.15875435 8.7895546 C17.05891271 8.79032592 14.95906196 8.78596969 12.85924339 8.77609634 C9.9911736 8.76340215 7.12371132 8.76924009 4.25564575 8.77967834 C3.01112361 8.76759374 3.01112361 8.76759374 1.74145961 8.755265 C-4.88690948 8.81162976 -9.55983643 10.13633192 -14.6925354 14.58467102 C-19.09699329 19.74417884 -19.23542071 24.28060874 -19.44644165 30.83467102 C-19.67877052 35.94590614 -19.67877052 35.94590614 -21.8800354 38.14717102 C-26.43559096 37.59161546 -26.43559096 37.59161546 -27.8800354 36.14717102 C-28.50393055 25.96088284 -28.65721816 17.6510659 -22.6925354 8.95967102 C-15.79604885 2.06318447 -9.64405322 -0.00205674 0 0 Z " fill="#19222E" transform="translate(114.88003540039063,19.852828979492188)"/>
<path d="M0 0 C0.98111 -0.00021904 0.98111 -0.00021904 1.98204041 -0.0004425 C4.13552207 0.00025198 6.28891633 0.00802256 8.44238281 0.01586914 C9.93882195 0.01773497 11.4352617 0.0191581 12.93170166 0.02015686 C16.86409196 0.02396904 20.79644514 0.03378822 24.7288208 0.04486084 C29.45036553 0.05690468 34.17192269 0.06148339 38.89347839 0.06731415 C46.06084733 0.07700068 53.22813486 0.09616631 60.39550781 0.11352539 C60.39550781 21.23352539 60.39550781 42.35352539 60.39550781 64.11352539 C44.11578776 64.27396063 44.11578776 64.27396063 37.11621094 64.30883789 C32.36089981 64.33264576 27.60590002 64.36064986 22.85083008 64.4152832 C19.01230292 64.45910428 15.17411015 64.48273789 11.33535194 64.49303436 C9.87906959 64.50036135 8.4228032 64.51466724 6.96666527 64.53644562 C-4.08423979 64.69498323 -14.49258605 63.83818943 -22.97949219 55.98852539 C-30.18648593 48.8962927 -33.04234002 42.65458585 -33.16699219 32.61352539 C-32.99459603 23.52309589 -31.24200704 16.6466894 -24.97949219 9.80102539 C-17.72635912 3.09119818 -9.76228846 -0.01835017 0 0 Z " fill="#F7F8F8" transform="translate(294.6044921875,99.886474609375)"/>
<path d="M0 0 C0.91909602 -0.00367669 1.83819203 -0.00735338 2.78513944 -0.01114148 C5.87803597 -0.02219199 8.97089892 -0.0260245 12.06381226 -0.02983093 C14.27622586 -0.0360946 16.48863841 -0.04274131 18.7010498 -0.04974365 C24.72194193 -0.06716339 30.74282611 -0.07770829 36.7637372 -0.08594918 C40.5249206 -0.09109776 44.28610152 -0.09717359 48.04728317 -0.10346031 C58.46494278 -0.12033175 68.88260082 -0.13496599 79.30027199 -0.14220905 C82.00335313 -0.14411889 84.70643427 -0.14603923 87.40951538 -0.147995 C88.41724784 -0.14872061 88.41724784 -0.14872061 89.44533853 -0.14946087 C100.32228448 -0.1577567 111.19912029 -0.18308579 122.07601817 -0.21557567 C133.24858485 -0.24867598 144.42111173 -0.266328 155.59373128 -0.26985329 C161.86449812 -0.27220429 168.13509092 -0.28117136 174.40581131 -0.30631447 C180.3073422 -0.32959441 186.20858448 -0.33382852 192.11014938 -0.32355309 C194.27365834 -0.32305759 196.4371815 -0.32938211 198.60064697 -0.34310913 C201.5601184 -0.3608327 204.51855461 -0.35371917 207.47802734 -0.34057617 C208.32911973 -0.35154542 209.18021211 -0.36251466 210.05709517 -0.37381631 C217.55948988 -0.29367701 223.19412842 2.17785821 229.3699646 6.33467102 C235.7077175 12.81646376 237.6894878 18.68346118 237.68644714 27.70492554 C237.66064072 28.88340561 237.63483429 30.06188568 237.60824585 31.27607727 C237.60117111 32.50632126 237.59409637 33.73656525 237.58680725 35.00408936 C237.55897447 38.90658663 237.49625126 42.80761246 237.4324646 46.70967102 C237.40452813 49.36655105 237.3845572 52.02341727 237.36410522 54.68037415 C237.30918388 61.16980258 237.22566707 67.65838164 237.1199646 74.14717102 C235.4699646 74.14717102 233.8199646 74.14717102 232.1199646 74.14717102 C231.1199646 71.14717102 231.1199646 71.14717102 231.1199646 69.14717102 C230.7899646 69.14717102 230.4599646 69.14717102 230.1199646 69.14717102 C230.09490845 68.01287659 230.06985229 66.87858215 230.04403687 65.70991516 C229.9492386 61.46616515 229.84920042 57.2225515 229.74765015 52.97895813 C229.70457317 51.14891266 229.66288137 49.318834 229.62265015 47.48872375 C229.56428113 44.84482356 229.50078578 42.20108628 229.43637085 39.55732727 C229.41130211 38.34738853 229.41130211 38.34738853 229.38572693 37.11300659 C229.2420293 24.89710994 229.2420293 24.89710994 224.1199646 14.14717102 C218.19249196 9.7049421 212.68304965 8.99929925 205.49221802 9.00672913 C204.60029574 9.003758 203.70837346 9.00078688 202.78942323 8.99772573 C199.78859168 8.98902603 196.78779996 8.9875294 193.78695679 8.98603821 C191.640263 8.98141092 189.49357005 8.97638638 187.34687805 8.97099304 C181.50586319 8.95785807 175.66485984 8.95142189 169.82383251 8.94698238 C166.1759011 8.9440533 162.52797285 8.93994879 158.88004303 8.93547821 C147.47036114 8.9218001 136.06068645 8.9121351 124.65099692 8.90827632 C111.47319362 8.9037953 98.29549403 8.88624664 85.11772227 8.85727572 C74.93674276 8.83566897 64.75579244 8.82557257 54.57479024 8.8242352 C48.49191508 8.82318641 42.40913737 8.81726285 36.32628632 8.79941559 C30.60372377 8.78295249 24.88133211 8.78077092 19.15875435 8.7895546 C17.05891271 8.79032592 14.95906196 8.78596969 12.85924339 8.77609634 C9.9911736 8.76340215 7.12371132 8.76924009 4.25564575 8.77967834 C3.01112361 8.76759374 3.01112361 8.76759374 1.74145961 8.755265 C-4.88690948 8.81162976 -9.55983643 10.13633192 -14.6925354 14.58467102 C-19.09699329 19.74417884 -19.23542071 24.28060874 -19.44644165 30.83467102 C-19.67877052 35.94590614 -19.67877052 35.94590614 -21.8800354 38.14717102 C-26.43559096 37.59161546 -26.43559096 37.59161546 -27.8800354 36.14717102 C-28.50393055 25.96088284 -28.65721816 17.6510659 -22.6925354 8.95967102 C-15.79604885 2.06318447 -9.64405322 -0.00205674 0 0 Z " fill="#16212C" transform="translate(114.88003540039063,19.852828979492188)"/>
<path d="M0 0 C3.45947197 0.16843041 6.90225065 0.20504954 10.36547852 0.22167969 C12.58635495 0.26880661 14.8070912 0.32323176 17.02758789 0.38574219 C18.04853043 0.40294312 19.06947296 0.42014404 20.12135315 0.43786621 C26.56005703 0.80022987 30.10378024 2.21826737 34.69630432 6.78359985 C36.92200468 9.29200657 38.99031543 11.91774551 41.08227539 14.53808594 C45.09847399 18.92389331 48.58724831 20.3436755 54.49526978 20.80801392 C58.98213295 20.94749352 63.44413422 20.86754733 67.92993164 20.72949219 C70.68870362 20.69366398 73.44707211 20.67315114 76.20603943 20.66001892 C77.91235608 20.64666464 79.61863928 20.61725397 81.32435608 20.57008362 C83.33855316 20.52892724 85.35432429 20.5890016 87.36743164 20.66699219 C88.35743164 21.65699219 88.35743164 21.65699219 89.36743164 22.66699219 C89.11743164 25.22949219 89.11743164 25.22949219 88.36743164 27.66699219 C77.82754029 32.93693786 54.67267323 31.17437799 43.36743164 28.66699219 C39.48674735 26.47016066 37.44266755 23.88049541 35.05493164 20.16699219 C32.13938447 15.80687712 29.35050207 12.46897161 24.10577393 11.05895996 C10.203928 8.53563156 -10.10037891 6.73583492 -23.00219727 13.41015625 C-26.2872237 16.1532899 -28.68710862 19.08248279 -31.13037109 22.57836914 C-35.30029801 28.31604749 -35.30029801 28.31604749 -39.68920898 29.47216797 C-47.03695907 30.15985265 -54.33103233 29.63965009 -61.63256836 28.66699219 C-61.92905273 29.2921875 -62.22553711 29.91738281 -62.53100586 30.56152344 C-63.92906724 33.23370458 -64.98152776 34.20194344 -67.63256836 35.66699219 C-72.15741668 36.68873213 -74.53387736 37.01940251 -78.94506836 35.60449219 C-82.27355779 33.20488353 -83.31404685 31.54930553 -84.63256836 27.66699219 C-85.35133414 22.63563169 -85.24091077 19.85830079 -82.19506836 15.72949219 C-79.06071091 12.49880697 -76.27443571 11.55895438 -71.81616211 11.39355469 C-68.27523332 11.83696259 -66.24008424 13.3138681 -63.63256836 15.66699219 C-62.92325989 16.97813814 -62.24727448 18.30892054 -61.63256836 19.66699219 C-58.31878201 20.00405794 -55.02378803 20.13022619 -51.69506836 20.22949219 C-50.33478516 20.37161133 -50.33478516 20.37161133 -48.94702148 20.51660156 C-44.48610208 20.56259042 -41.1780754 20.16430254 -37.85641479 16.94622803 C-36.57892784 15.48784625 -35.31109812 14.02096708 -34.05136108 12.54722595 C-23.81972488 0.61174296 -15.37531299 -0.76396328 0 0 Z " fill="#242C37" transform="translate(101.632568359375,67.3330078125)"/>
<path d="M0 0 C1.26100525 0.00030212 2.5220105 0.00060425 3.82122803 0.00091553 C5.19234858 0.02134051 6.56346265 0.04220447 7.93457031 0.06347656 C9.34132076 0.07094039 10.74808162 0.07663266 12.15484619 0.08062744 C15.85077813 0.09587296 19.54607758 0.13514426 23.24176025 0.17944336 C27.01557866 0.22042013 30.78949964 0.23864352 34.56347656 0.25878906 C41.96350396 0.30164057 49.36301089 0.36987751 56.76269531 0.45410156 C57.38769531 3.32910156 57.38769531 3.32910156 57.76269531 6.45410156 C55.76269531 8.45410156 55.76269531 8.45410156 53.47937012 8.6114502 C52.52550415 8.57048218 51.57163818 8.52951416 50.58886719 8.48730469 C48.96446716 8.42996155 48.96446716 8.42996155 47.30725098 8.37145996 C45.53722717 8.3040863 45.53722717 8.3040863 43.73144531 8.23535156 C41.22242157 8.18737043 38.7132943 8.14457845 36.20410156 8.10644531 C32.25278977 8.04354031 28.31170512 7.95630501 24.36376953 7.77880859 C7.64932435 6.73910166 7.64932435 6.73910166 -7.02636719 13.52832031 C-11.009024 17.28808633 -14.53597747 21.33616125 -17.8260498 25.71203613 C-19.23730469 27.45410156 -19.23730469 27.45410156 -21.23730469 28.45410156 C-22.84084921 28.54426533 -24.44812691 28.57166231 -26.05419922 28.56762695 C-27.05508575 28.56755142 -28.05597229 28.56747589 -29.08718872 28.56739807 C-30.17055511 28.56223679 -31.25392151 28.5570755 -32.37011719 28.55175781 C-33.47708954 28.55034286 -34.58406189 28.54892792 -35.72457886 28.54747009 C-39.27051462 28.54185929 -42.81638792 28.52930493 -46.36230469 28.51660156 C-48.76204336 28.51158796 -51.16178302 28.50702481 -53.56152344 28.50292969 C-59.45347194 28.49188634 -65.34538385 28.47513766 -71.23730469 28.45410156 C-71.51445313 29.24042969 -71.79160156 30.02675781 -72.07714844 30.83691406 C-73.23730469 33.45410156 -73.23730469 33.45410156 -75.79980469 35.32910156 C-80.24336576 36.78335791 -83.75898614 36.83141132 -88.23730469 35.45410156 C-91.41511498 32.8721307 -93.92717521 30.66931212 -94.51074219 26.50097656 C-94.70059512 22.20737958 -94.67157149 19.35827192 -91.86230469 15.95410156 C-88.06123545 12.33403562 -85.72612533 12.0617791 -80.63574219 12.09472656 C-76.5138005 12.71234649 -74.31165028 14.70681401 -71.23730469 17.45410156 C-71.23730469 18.11410156 -71.23730469 18.77410156 -71.23730469 19.45410156 C-64.67135923 19.4632138 -58.1068424 19.42574414 -51.54125977 19.35644531 C-49.30954999 19.33831844 -47.07772826 19.33071077 -44.84594727 19.33398438 C-41.63047218 19.33685086 -38.41730329 19.30143657 -35.20214844 19.25878906 C-34.21020981 19.267883 -33.21827118 19.27697693 -32.1962738 19.28634644 C-26.18579713 19.16128841 -22.89250187 18.23881448 -18.58563232 13.95269775 C-18.1406842 13.45816101 -17.69573608 12.96362427 -17.23730469 12.45410156 C-16.5528125 11.72964844 -15.86832031 11.00519531 -15.16308594 10.25878906 C-14.36451172 9.30359375 -14.36451172 9.30359375 -13.54980469 8.32910156 C-12.45579413 7.02882171 -11.35150652 5.73712186 -10.23730469 4.45410156 C-9.38842682 3.41845062 -9.38842682 3.41845062 -8.5223999 2.36187744 C-5.52908834 -0.13717273 -3.8659394 -0.03092752 0 0 Z " fill="#18212D" transform="translate(133.2373046875,158.5458984375)"/>
<path d="M0 0 C3.0625 2.4375 3.0625 2.4375 5 5 C5 5.66 5 6.32 5 7 C6.94438713 6.99333817 6.94438713 6.99333817 8.92805481 6.98654175 C21.12679445 6.94604929 33.3255205 6.91604141 45.52431202 6.89637566 C51.79626574 6.88592554 58.06816533 6.87174392 64.34008789 6.84912109 C70.38954388 6.82743655 76.43894771 6.81544063 82.48843956 6.81024551 C84.79977935 6.80654186 87.11111619 6.79930985 89.42243385 6.78853989 C92.6525356 6.77408337 95.88242009 6.77201962 99.11254883 6.77294922 C100.07423981 6.76575867 101.03593079 6.75856812 102.02676392 6.75115967 C103.34555794 6.75528366 103.34555794 6.75528366 104.69099426 6.75949097 C105.45516065 6.75764738 106.21932703 6.75580379 107.00664997 6.75390434 C109 7 109 7 112 9 C111.25 13.75 111.25 13.75 109 16 C107.1296978 16.24609566 107.1296978 16.24609566 104.81124878 16.24050903 C103.49451675 16.24463303 103.49451675 16.24463303 102.15118408 16.24884033 C101.18589783 16.24164978 100.22061157 16.23445923 99.22607422 16.22705078 C97.70407913 16.22748886 97.70407913 16.22748886 96.15133667 16.22793579 C92.78570101 16.22653852 89.42028466 16.2109586 86.0546875 16.1953125 C83.72584148 16.19158378 81.3969939 16.18873615 79.06814575 16.18673706 C72.92946057 16.17908949 66.79086957 16.15943134 60.65222168 16.1373291 C54.39185867 16.11689486 48.13148048 16.10774053 41.87109375 16.09765625 C29.58068772 16.07618652 17.29035168 16.04203703 5 16 C4.70746338 16.62447021 4.41492676 17.24894043 4.11352539 17.89233398 C2.75139035 20.47056503 1.51084332 21.53122403 -1 23 C-5.80006752 23.86635365 -9.80467458 23.72217577 -14 21.1875 C-17.41113347 17.45657276 -18.40519579 15.15376529 -18.24609375 10.0625 C-17.85718602 6.80308287 -16.87159628 4.68262134 -15 2 C-10.21014108 -1.53537206 -5.56235611 -1.70756153 0 0 Z " fill="#212B35" transform="translate(79,128)"/>
<path d="M0 0 C2.35422868 1.48824589 4.0026181 3.0026181 6 5 C6 5.66 6 6.32 6 7 C7.04569656 6.99333817 7.04569656 6.99333817 8.11251831 6.98654175 C14.67527726 6.94650414 21.23800225 6.91603558 27.80085564 6.89637566 C31.17506994 6.88592858 34.54918352 6.87175275 37.92333984 6.84912109 C41.80048318 6.82495115 45.67748277 6.81353489 49.5546875 6.8046875 C50.76929657 6.79436493 51.98390564 6.78404236 53.23532104 6.77340698 C54.35633209 6.77325592 55.47734314 6.77310486 56.63232422 6.77294922 C57.62271698 6.768508 58.61310974 6.76406677 59.6335144 6.75949097 C62 7 62 7 64 9 C64.1875 12.0625 64.1875 12.0625 64 15 C63 16 63 16 60.71580505 16.12025452 C59.70542679 16.11803391 58.69504852 16.11581329 57.65405273 16.11352539 C56.5129454 16.11344986 55.37183807 16.11337433 54.19615173 16.11329651 C52.9545076 16.10813522 51.71286346 16.10297394 50.43359375 16.09765625 C48.53795433 16.09553383 48.53795433 16.09553383 46.60401917 16.09336853 C43.23875111 16.08870582 39.8735501 16.0797148 36.50830078 16.06866455 C33.0765033 16.05844846 29.64469891 16.05387049 26.21289062 16.04882812 C19.47524176 16.0377738 12.73762475 16.0210171 6 16 C5.57074219 16.92039062 5.57074219 16.92039062 5.1328125 17.859375 C3.53201333 20.88433343 1.92696604 22.2183685 -1 24 C-4.97776979 24.73274707 -8.09412788 24.38247934 -11.8125 22.8125 C-14.98565878 20.1833113 -16.73030673 18.03193562 -17.28515625 13.8515625 C-17.46453147 9.15661108 -17.29044224 5.60887214 -14 2 C-9.00235934 -0.88325423 -5.56552022 -1.61906043 0 0 Z " fill="#1C2632" transform="translate(127,104)"/>
<path d="M0 0 C4.3042959 2.32664643 7.49750591 4.63588169 9.3125 9.25 C9.98252222 14.84390643 10.06726125 19.71352174 7.5625 24.8125 C3.12459859 29.62022653 -0.43998146 31.30185591 -6.9375 31.6875 C-11.73805802 31.64782597 -14.38372427 29.89302058 -18.05859375 26.953125 C-22.29382845 22.52491798 -22.11787461 18.05252519 -21.99609375 12.1640625 C-21.57157515 8.1553172 -20.4973375 6.13188461 -17.6875 3.25 C-12.15327592 -1.20540065 -6.88759149 -1.92211855 0 0 Z " fill="#222B35" transform="translate(298.6875,116.75)"/>
<path d="M0 0 C0.66 0.99 1.32 1.98 2 3 C0.68 3.33 -0.64 3.66 -2 4 C-2 5.65 -2 7.3 -2 9 C-3.65 9.33 -5.3 9.66 -7 10 C-6.42547254 13.93075644 -6.42547254 13.93075644 -4 17 C-6.17241963 19.62690073 -7.32677023 20.88879153 -10.74902344 21.45410156 C-11.77543945 21.4331543 -12.80185547 21.41220703 -13.859375 21.390625 C-14.97441406 21.37773438 -16.08945312 21.36484375 -17.23828125 21.3515625 C-18.97658203 21.30128906 -18.97658203 21.30128906 -20.75 21.25 C-21.92433594 21.23195313 -23.09867188 21.21390625 -24.30859375 21.1953125 C-27.2065534 21.1481912 -30.10286418 21.08241305 -33 21 C-33.29648437 21.62519531 -33.59296875 22.25039062 -33.8984375 22.89453125 C-35.29649888 25.56671239 -36.3489594 26.53495125 -39 28 C-43.52484833 29.02173994 -45.901309 29.35241032 -50.3125 27.9375 C-53.64098943 25.53789134 -54.68147849 23.88231334 -56 20 C-56.71876579 14.9686395 -56.60834241 12.19130861 -53.5625 8.0625 C-50.42814255 4.83181478 -47.64186735 3.8919622 -43.18359375 3.7265625 C-39.64266496 4.1699704 -37.60751588 5.64687591 -35 8 C-34.29069153 9.31114596 -33.61470612 10.64192835 -33 12 C-19.35457898 13.12222449 -19.35457898 13.12222449 -7.08984375 8.484375 C-4.38224172 5.91814892 -2.11642443 3.07337231 0 0 Z " fill="#202934" transform="translate(73,75)"/>
<path d="M0 0 C1.32 0 2.64 0 4 0 C4.02313836 9.74423914 4.04092273 19.48847178 4.05181217 29.23273277 C4.05703772 33.75705305 4.06412944 38.28135458 4.07543945 42.80566406 C4.08627995 47.16930959 4.09227932 51.53293705 4.09487724 55.896595 C4.09672939 57.56401479 4.10034599 59.23143355 4.10573006 60.89884567 C4.11295589 63.22864697 4.11399029 65.55837295 4.11352539 67.88818359 C4.11712067 68.58229843 4.12071594 69.27641327 4.12442017 69.99156189 C4.11405216 74.77189568 4.11405216 74.77189568 3 77 C0.69 77 -1.62 77 -4 77 C-4 75.68 -4 74.36 -4 73 C-4.99 72.505 -4.99 72.505 -6 72 C-6 72.66 -6 73.32 -6 74 C-6.66 74 -7.32 74 -8 74 C-8.33 73.01 -8.66 72.02 -9 71 C-24.18 70.67 -39.36 70.34 -55 70 C-55 69.67 -55 69.34 -55 69 C-38.17 69 -21.34 69 -4 69 C-4 47.55 -4 26.1 -4 4 C-3.34 4 -2.68 4 -2 4 C-1.34 2.68 -0.68 1.36 0 0 Z " fill="#18202C" transform="translate(359,95)"/>
<path d="M0 0 C2.83094621 1.37944288 4.61220265 2.86622365 7 5 C7 5.66 7 6.32 7 7 C22.51 7 38.02 7 54 7 C49.47052083 10.39710938 46.90418579 10.41206358 41.54296875 10.328125 C40.72178055 10.32625183 39.90059235 10.32437866 39.05451965 10.32244873 C37.3187758 10.31573497 35.5830469 10.30183383 33.84741211 10.28125 C31.20737429 10.25023349 28.567936 10.24028866 25.92773438 10.234375 C24.23697198 10.225198 22.5462156 10.21482002 20.85546875 10.203125 C20.07294235 10.19887512 19.29041595 10.19462524 18.48417664 10.19024658 C13.89577533 10.1312604 9.52998268 9.73361829 5 9 C4.67 9 4.34 9 4 9 C3.34 9 2.68 9 2 9 C2.33 10.65 2.66 12.3 3 14 C3.33 12.68 3.66 11.36 4 10 C6.31 10 8.62 10 11 10 C9.02 10.99 9.02 10.99 7 12 C7.66 12.66 8.32 13.32 9 14 C7.08087971 17.9120529 5.82468038 20.38628437 2.3125 23 C-2.06252065 24.32076095 -5.61946439 24.34723655 -10 23 C-13.17781029 20.41802914 -15.68987052 18.21521055 -16.2734375 14.046875 C-16.46329043 9.75327801 -16.4342668 6.90417036 -13.625 3.5 C-9.37812202 -0.54464569 -5.70940443 -0.85548079 0 0 Z " fill="#1A232E" transform="translate(55,171)"/>
<path d="M0 0 C3.48035617 1.43055286 4.81057792 3.06218984 6.9765625 6.0703125 C11.98693075 11.21075985 17.34206186 10.87615623 24.11431885 10.96417236 C26.86877363 10.96088431 29.62094179 10.92028275 32.375 10.875 C35.15398447 10.86154478 37.93257188 10.85922009 40.71157837 10.86599731 C42.43442808 10.86677865 44.15734867 10.85393464 45.87997437 10.82614136 C47.92074571 10.81046576 49.96180432 10.89630927 52 11 C52.66 11.66 53.32 12.32 54 13 C53.75 15.5625 53.75 15.5625 53 18 C50.77468018 19.11265991 49.45471256 19.17756987 46.984375 19.2722168 C46.15591064 19.30441818 45.32744629 19.33661957 44.47387695 19.36979675 C40.65852437 19.48104367 36.84332365 19.56295951 33.02685547 19.62475586 C31.0227609 19.66629904 29.01896977 19.72755352 27.01611328 19.80932617 C9.5676252 20.50974967 9.5676252 20.50974967 4.4296875 16.90087891 C0.42063089 13.05386928 -2.55719789 9.70528855 -3 4 C-1.5625 1.6875 -1.5625 1.6875 0 0 Z " fill="#1B242F" transform="translate(137,77)"/>
<path d="M0 0 C2.35422868 1.48824589 4.0026181 3.0026181 6 5 C6 5.66 6 6.32 6 7 C24.48 7 42.96 7 62 7 C62 7.33 62 7.66 62 8 C54.60290309 8.17687866 47.20564686 8.34283967 39.80799294 8.49477577 C36.37314896 8.56566714 32.9384739 8.64035018 29.50390625 8.72363281 C25.55750086 8.81916177 21.61085002 8.89831757 17.6640625 8.9765625 C16.42757965 9.00875885 15.1910968 9.0409552 13.91714478 9.0741272 C12.77611298 9.09429901 11.63508118 9.11447083 10.45947266 9.13525391 C9.451315 9.15746002 8.44315735 9.17966614 7.40444946 9.20254517 C5 9 5 9 3 7 C2.01 7 1.02 7 0 7 C-0.33 6.01 -0.66 5.02 -1 4 C-1.99 4.66 -2.98 5.32 -4 6 C-4 6.66 -4 7.32 -4 8 C-3.01 7.67 -2.02 7.34 -1 7 C-0.67 7.99 -0.34 8.98 0 10 C0.66 10.33 1.32 10.66 2 11 C1.67 12.65 1.34 14.3 1 16 C0.01 16 -0.98 16 -2 16 C-2.66 16.99 -3.32 17.98 -4 19 C-4 18.34 -4 17.68 -4 17 C-5.32 17.33 -6.64 17.66 -8 18 C-8 17.34 -8 16.68 -8 16 C-10.05270463 17.84188612 -10.05270463 17.84188612 -11 20 C-10.34 20 -9.68 20 -9 20 C-9 20.99 -9 21.98 -9 23 C-12.01488424 22.10368306 -13.71802222 21.32087126 -15.8125 18.9375 C-17.83843472 13.92597727 -17.80863779 9.18807872 -15.9375 4.125 C-11.43351449 -0.81485508 -6.27529202 -1.8255395 0 0 Z " fill="#494F56" transform="translate(127,104)"/>
<path d="M0 0 C1.32 1.32 2.64 2.64 4 4 C3.34 4 2.68 4 2 4 C1.731875 4.598125 1.46375 5.19625 1.1875 5.8125 C-0.0394296 8.07263348 -1.00649382 9.38688085 -3 11 C-5.13160706 11.38095093 -5.13160706 11.38095093 -7.62329102 11.38818359 C-8.55758438 11.39764008 -9.49187775 11.40709656 -10.45448303 11.4168396 C-11.46079269 11.41076691 -12.46710236 11.40469421 -13.50390625 11.3984375 C-15.05524513 11.40274277 -15.05524513 11.40274277 -16.63792419 11.40713501 C-18.82429553 11.40917683 -21.01068508 11.40363875 -23.19702148 11.39111328 C-26.55298454 11.37504556 -29.90774613 11.39096688 -33.26367188 11.41015625 C-35.38541934 11.40817416 -37.50716605 11.40433119 -39.62890625 11.3984375 C-40.63724014 11.40451019 -41.64557404 11.41058289 -42.6844635 11.4168396 C-43.61560471 11.40738312 -44.54674591 11.39792664 -45.50610352 11.38818359 C-46.32756363 11.38579681 -47.14902374 11.38341003 -47.99537659 11.38095093 C-48.65690231 11.25523712 -49.31842804 11.12952332 -50 11 C-50.66 10.01 -51.32 9.02 -52 8 C-51.67 7.67 -51.34 7.34 -51 7 C-51.99 6.67 -52.98 6.34 -54 6 C-53.67 7.32 -53.34 8.64 -53 10 C-53.99 10 -54.98 10 -56 10 C-56.33 9.01 -56.66 8.02 -57 7 C-56.67 6.34 -56.34 5.68 -56 5 C-55.34 5 -54.68 5 -54 5 C-54 4.34 -54 3.68 -54 3 C-52.01432292 3.55338542 -50.02864583 4.10677083 -48.04296875 4.66015625 C-45.80755841 5.19563817 -45.80755841 5.19563817 -43 4 C-41.64503571 3.9017624 -40.28595512 3.85461511 -38.92749023 3.84228516 C-38.11332138 3.83202301 -37.29915253 3.82176086 -36.46031189 3.81118774 C-35.5852449 3.80388641 -34.71017792 3.79658508 -33.80859375 3.7890625 C-31.95897529 3.76100963 -30.10936601 3.73234529 -28.25976562 3.703125 C-25.34090276 3.66174714 -22.42221449 3.62486265 -19.50317383 3.59863281 C-16.68795351 3.57113719 -13.87351571 3.52528542 -11.05859375 3.4765625 C-9.74295692 3.4716832 -9.74295692 3.4716832 -8.40074158 3.46670532 C-5.68983442 3.4460432 -5.68983442 3.4460432 -2 3 C-1.34 2.01 -0.68 1.02 0 0 Z " fill="#161E2A" transform="translate(113,175)"/>
<path d="M0 0 C-1.8125 2.5 -1.8125 2.5 -4 5 C-4.99 5 -5.98 5 -7 5 C-7 5.99 -7 6.98 -7 8 C-6.34 8.33 -5.68 8.66 -5 9 C-5.54269531 9.36351562 -6.08539063 9.72703125 -6.64453125 10.1015625 C-7.35996094 10.60429687 -8.07539062 11.10703125 -8.8125 11.625 C-9.52019531 12.11226562 -10.22789063 12.59953125 -10.95703125 13.1015625 C-14.63274124 16.51723182 -15.86699672 19.85593642 -16.44140625 24.796875 C-16.48136719 26.10140625 -16.52132812 27.4059375 -16.5625 28.75 C-16.79027356 35.79027356 -16.79027356 35.79027356 -19 38 C-23.55555556 37.44444444 -23.55555556 37.44444444 -25 36 C-25.62389515 25.81371182 -25.77718276 17.50389488 -19.8125 8.8125 C-13.97406935 2.97406935 -8.34072419 -0.18534943 0 0 Z " fill="#1B222D" transform="translate(112,20)"/>
<path d="M0 0 C1.6874269 0.00015917 3.37485866 0.00585622 5.06225586 0.01586914 C6.39189613 0.01799156 6.39189613 0.01799156 7.74839783 0.02015686 C10.59133215 0.02577324 13.43418892 0.03832848 16.27709961 0.05102539 C18.19962452 0.05603828 20.12215065 0.06060155 22.04467773 0.06469727 C26.7680151 0.07574798 31.49129419 0.09302356 36.21459961 0.11352539 C36.70959961 2.09352539 36.70959961 2.09352539 37.21459961 4.11352539 C33.91459961 4.11352539 30.61459961 4.11352539 27.21459961 4.11352539 C27.21459961 4.77352539 27.21459961 5.43352539 27.21459961 6.11352539 C11.86959961 6.60852539 11.86959961 6.60852539 -3.78540039 7.11352539 C-4.11540039 5.13352539 -4.44540039 3.15352539 -4.78540039 1.11352539 C-3.78540039 0.11352539 -3.78540039 0.11352539 0 0 Z " fill="#16202C" transform="translate(149.785400390625,87.886474609375)"/>
<path d="M0 0 C-0.99 0.33 -1.98 0.66 -3 1 C-3 1.99 -3 2.98 -3 4 C-4.65 4.33 -6.3 4.66 -8 5 C-8.33 6.32 -8.66 7.64 -9 9 C-8.01 9.33 -7.02 9.66 -6 10 C-5.67 9.67 -5.34 9.34 -5 9 C-3.33382885 8.95936168 -1.66611905 8.957279 0 9 C0.625 11.375 0.625 11.375 1 14 C0.34 14.66 -0.32 15.32 -1 16 C-2.32 16 -3.64 16 -5 16 C-5 16.99 -5 17.98 -5 19 C-5.66 19 -6.32 19 -7 19 C-7.33 19.66 -7.66 20.32 -8 21 C-7.34 21.33 -6.68 21.66 -6 22 C-6 22.66 -6 23.32 -6 24 C-10.41832494 22.64995627 -12.64842388 21.00638894 -15 17 C-15.61595345 11.45641891 -15.28102593 7.70280383 -12 3 C-7.91819743 0.27879829 -4.86346089 -0.34739006 0 0 Z " fill="#1F2831" transform="translate(76,127)"/>
<path d="M0 0 C7.38013432 2.50924567 10.77479274 6.5545178 14.9375 13 C16.25122511 16.7093415 15.83606392 19.19970944 15 23 C14.01 22.34 13.02 21.68 12 21 C12.33 19.68 12.66 18.36 13 17 C12.01 17 11.02 17 10 17 C10 15.35 10 13.7 10 12 C9.01 12.495 9.01 12.495 8 13 C8 14.32 8 15.64 8 17 C7.34 17 6.68 17 6 17 C5.608125 16.2575 5.21625 15.515 4.8125 14.75 C2.5053493 11.24949548 -0.34358954 9.80506339 -4 8 C-5.134375 7.4225 -6.26875 6.845 -7.4375 6.25 C-8.283125 5.8375 -9.12875 5.425 -10 5 C-9.34 3.68 -8.68 2.36 -8 1 C-6.576875 1.309375 -6.576875 1.309375 -5.125 1.625 C-4.09375 1.74875 -3.0625 1.8725 -2 2 C-1.34 1.34 -0.68 0.68 0 0 Z " fill="#1C252F" transform="translate(336,22)"/>
<path d="M0 0 C0.99 0.33 1.98 0.66 3 1 C3.10957031 1.69867188 3.21914063 2.39734375 3.33203125 3.1171875 C3.49058594 4.02726563 3.64914062 4.93734375 3.8125 5.875 C3.96332031 6.77992188 4.11414063 7.68484375 4.26953125 8.6171875 C4.83051301 11.34412478 4.83051301 11.34412478 8 13 C9.65549531 13.38499891 11.3222433 13.72793135 13 14 C12.01 14.495 12.01 14.495 11 15 C11.33 15.99 11.66 16.98 12 18 C11.67 18.99 11.34 19.98 11 21 C5.29410528 21.45647158 2.39901992 20.69917584 -2 17 C-5.70213426 12.68084337 -5.317716 8.40117207 -5 3 C-4.34 3 -3.68 3 -3 3 C-1.37485532 1.54166642 -1.37485532 1.54166642 0 0 Z " fill="#1E2530" transform="translate(282,126)"/>
<path d="M0 0 C0.66 0 1.32 0 2 0 C2 0.66 2 1.32 2 2 C3.98 1.67 5.96 1.34 8 1 C7.91621094 1.61488281 7.83242188 2.22976562 7.74609375 2.86328125 C7.64425781 3.67152344 7.54242188 4.47976562 7.4375 5.3125 C7.33308594 6.11300781 7.22867188 6.91351563 7.12109375 7.73828125 C6.85244822 10.16817116 6.85244822 10.16817116 8 13 C8.66 13.33 9.32 13.66 10 14 C10.66 14.33 11.32 14.66 12 15 C12.99 14.67 13.98 14.34 15 14 C15 15.65 15 17.3 15 19 C11.49337774 20.75331113 7.70839169 19.95431841 4 19 C1.29447612 16.80176185 -0.44778333 15.10443333 -2 12 C-2.16796875 9.94140625 -2.16796875 9.94140625 -2.1875 7.5625 C-2.20167969 6.78003906 -2.21585938 5.99757812 -2.23046875 5.19140625 C-2 3 -2 3 0 0 Z " fill="#1B242E" transform="translate(41,175)"/>
<path d="M0 0 C7.25581395 -0.48372093 7.25581395 -0.48372093 10.5 1.625 C12.45562482 4.72140596 12.60024477 6.39853135 12 10 C10.5 12.375 10.5 12.375 8 14 C4.98037869 14.65009956 3.18015664 14.45430809 0 14 C-2.63238596 11.20308991 -2.97124916 9.50793153 -3.1875 5.6875 C-3.125625 4.800625 -3.06375 3.91375 -3 3 C-2.34 3 -1.68 3 -1 3 C-0.67 2.01 -0.34 1.02 0 0 Z " fill="#EAEDEF" transform="translate(288,125)"/>
<path d="M0 0 C0.33 0.66 0.66 1.32 1 2 C0.01 2 -0.98 2 -2 2 C-1.67 2.66 -1.34 3.32 -1 4 C-1.99 4.66 -2.98 5.32 -4 6 C-4.36362818 8.20725073 -4.36362818 8.20725073 -4.1875 10.625 C-4.16042969 11.44226563 -4.13335937 12.25953125 -4.10546875 13.1015625 C-4.07066406 13.72804688 -4.03585938 14.35453125 -4 15 C-3.34 15 -2.68 15 -2 15 C-2.33 15.99 -2.66 16.98 -3 18 C-3.66 18 -4.32 18 -5 18 C-5 18.66 -5 19.32 -5 20 C-5.99 20.33 -6.98 20.66 -8 21 C-11.82731361 17.41960985 -12.88280122 15.45326483 -13.3125 10.125 C-13.2765123 6.86811299 -12.98766235 5.9800045 -11.1875 3.0625 C-7.64923523 -0.27357821 -4.6675394 -0.1037231 0 0 Z " fill="#1A252F" transform="translate(30,81)"/>
<path d="M0 0 C0.495 0.99 0.495 0.99 1 2 C0.67 2.66 0.34 3.32 0 4 C0.99 4.33 1.98 4.66 3 5 C2.34 5.33 1.68 5.66 1 6 C1 6.66 1 7.32 1 8 C-0.32 8 -1.64 8 -3 8 C-3.33 8.66 -3.66 9.32 -4 10 C-3.505 10.99 -3.505 10.99 -3 12 C-2.236875 11.319375 -1.47375 10.63875 -0.6875 9.9375 C0.199375 9.298125 1.08625 8.65875 2 8 C2.99 8.33 3.98 8.66 5 9 C3.04468135 10.9822267 1.08594334 12.96085116 -0.875 14.9375 C-1.43058594 15.50146484 -1.98617187 16.06542969 -2.55859375 16.64648438 C-7.81248122 21.93202176 -7.81248122 21.93202176 -11.10073853 22.12025452 C-11.96677704 22.11803391 -12.83281555 22.11581329 -13.72509766 22.11352539 C-14.70596344 22.11344986 -15.68682922 22.11337433 -16.69741821 22.11329651 C-17.75891083 22.10813522 -18.82040344 22.10297394 -19.9140625 22.09765625 C-20.99883881 22.0962413 -22.08361511 22.09482635 -23.20126343 22.09336853 C-26.67587 22.08775802 -30.15041281 22.07520372 -33.625 22.0625 C-35.97656157 22.05748635 -38.32812415 22.05292321 -40.6796875 22.04882812 C-46.45314686 22.03778518 -52.22656888 22.02103679 -58 22 C-58 21.67 -58 21.34 -58 21 C-41.83 20.67 -25.66 20.34 -9 20 C-8.34 18.68 -7.68 17.36 -7 16 C-6.34 15.01 -5.68 14.02 -5 13 C-5.66 12.34 -6.32 11.68 -7 11 C-7.99 11.99 -8.98 12.98 -10 14 C-10.66 13.34 -11.32 12.68 -12 12 C-11.32904297 11.45472656 -11.32904297 11.45472656 -10.64453125 10.8984375 C-6.61206348 7.5452127 -3.23995546 4.12357967 0 0 Z " fill="#2C323C" transform="translate(121,165)"/>
<path d="M0 0 C0.66 0.33 1.32 0.66 2 1 C2.33 1.99 2.66 2.98 3 4 C3.33 4 3.66 4 4 4 C3.67 9.61 3.34 15.22 3 21 C2.34 21 1.68 21 1 21 C0.67 22.98 0.34 24.96 0 27 C-0.99 27 -1.98 27 -3 27 C-4.79740863 18.68698507 -5.03994705 9.06899526 -2 1 C-1.34 0.67 -0.68 0.34 0 0 Z " fill="#16202C" transform="translate(258,116)"/>
<path d="M0 0 C0.33 0 0.66 0 1 0 C1 16.5 1 33 1 50 C3.64 50 6.28 50 9 50 C9.66 50.33 10.32 50.66 11 51 C11 51.66 11 52.32 11 53 C10.236875 53.268125 9.47375 53.53625 8.6875 53.8125 C5.99371254 54.77936436 5.99371254 54.77936436 4.5625 56.625 C3 58 3 58 -0.1875 58.1875 C-1.5796875 58.0946875 -1.5796875 58.0946875 -3 58 C-3.33 56.68 -3.66 55.36 -4 54 C-4.33 54.66 -4.66 55.32 -5 56 C-5.66 56 -6.32 56 -7 56 C-7.33 54.68 -7.66 53.36 -8 52 C-5 51 -5 51 0 52 C0 34.84 0 17.68 0 0 Z " fill="#4D545E" transform="translate(352,42)"/>
<path d="M0 0 C1.67542976 0.28604898 3.34385343 0.61781233 5 1 C6.125 6.75 6.125 6.75 5 9 C7.05270463 7.15811388 7.05270463 7.15811388 8 5 C8.66 5.33 9.32 5.66 10 6 C10 4.68 10 3.36 10 2 C12.31 2 14.62 2 17 2 C15.02 2.99 15.02 2.99 13 4 C13.66 4.66 14.32 5.32 15 6 C11 13.71428571 11 13.71428571 7 15 C6.67 13.68 6.34 12.36 6 11 C5.01 11.33 4.02 11.66 3 12 C0.9754262 10.06745228 -0.42105792 8.36841312 -2 6 C-1.45945946 1.45945946 -1.45945946 1.45945946 0 0 Z " fill="#212833" transform="translate(49,179)"/>
<path d="M0 0 C-2.10287468 4.76509987 -4.77559339 8.29520199 -8.4375 11.9375 C-8.91509766 12.44345703 -9.39269531 12.94941406 -9.88476562 13.47070312 C-11.30859375 14.90234375 -11.30859375 14.90234375 -14 17 C-16.34765625 16.81640625 -16.34765625 16.81640625 -18 16 C-18.33 14.35 -18.66 12.7 -19 11 C-17.35 10.67 -15.7 10.34 -14 10 C-13.8453125 8.824375 -13.8453125 8.824375 -13.6875 7.625 C-13 5 -13 5 -10 3 C-10 2.34 -10 1.68 -10 1 C-6.78548731 -0.60725635 -3.56387464 -0.05748185 0 0 Z " fill="#161F29" transform="translate(84,74)"/>
<path d="M0 0 C-1.8125 2.5 -1.8125 2.5 -4 5 C-4.99 5 -5.98 5 -7 5 C-7 5.99 -7 6.98 -7 8 C-6.34 8.33 -5.68 8.66 -5 9 C-6.98 10.32 -8.96 11.64 -11 13 C-11.66 12.34 -12.32 11.68 -13 11 C-13.33 11.66 -13.66 12.32 -14 13 C-15.33333333 13 -16.66666667 13 -18 13 C-18.33 13.66 -18.66 14.32 -19 15 C-19.66 13.68 -20.32 12.36 -21 11 C-15.89990527 3.56236185 -8.94228245 -0.19871739 0 0 Z " fill="#202833" transform="translate(112,20)"/>
<path d="M0 0 C2.0625 1.6875 2.0625 1.6875 4 4 C3.75 6.75 3.75 6.75 3 9 C2.01 9 1.02 9 0 9 C-0.99 10.485 -0.99 10.485 -2 12 C-2 11.34 -2 10.68 -2 10 C-3.32 10.33 -4.64 10.66 -6 11 C-6 10.34 -6 9.68 -6 9 C-8.05270463 10.84188612 -8.05270463 10.84188612 -9 13 C-8.34 13 -7.68 13 -7 13 C-7 13.99 -7 14.98 -7 16 C-9.475 15.01 -9.475 15.01 -12 14 C-11.814375 13.2575 -11.62875 12.515 -11.4375 11.75 C-11.00796892 9.05009037 -11.14877026 7.55368923 -12 5 C-8.14522751 2.43015167 -4.47959418 1.14185734 0 0 Z " fill="#232C38" transform="translate(125,111)"/>
<path d="M0 0 C0.66 0.33 1.32 0.66 2 1 C2.4140625 3.06640625 2.4140625 3.06640625 2.625 5.5625 C2.69976562 6.38878906 2.77453125 7.21507813 2.8515625 8.06640625 C2.90054688 8.70449219 2.94953125 9.34257813 3 10 C2.34 10 1.68 10 1 10 C0.67 11.65 0.34 13.3 0 15 C-1.65614657 15.38218767 -3.32457024 15.71395102 -5 16 C-6.86903222 14.13096778 -6.77191119 11.51997011 -7.078125 9.01171875 C-7 7 -7 7 -5.0625 4.5 C-4.381875 4.005 -3.70125 3.51 -3 3 C-5.31 3 -7.62 3 -10 3 C-8.02737928 -0.94524143 -3.89976385 -0.1659474 0 0 Z " fill="#252D38" transform="translate(32,79)"/>
<path d="M0 0 C0.66 0.33 1.32 0.66 2 1 C2 1.66 2 2.32 2 3 C17.51 3 33.02 3 49 3 C44.47052083 6.39710938 41.90418579 6.41206358 36.54296875 6.328125 C35.72178055 6.32625183 34.90059235 6.32437866 34.05451965 6.32244873 C32.3187758 6.31573497 30.5830469 6.30183383 28.84741211 6.28125 C26.20737429 6.25023349 23.567936 6.24028866 20.92773438 6.234375 C19.23697198 6.225198 17.5462156 6.21482002 15.85546875 6.203125 C15.07294235 6.19887512 14.29041595 6.19462524 13.48417664 6.19024658 C8.89773271 6.13128557 4.52647319 5.74859893 0 5 C-0.33 4.01 -0.66 3.02 -1 2 C-0.67 1.34 -0.34 0.68 0 0 Z " fill="#4E545B" transform="translate(60,175)"/>
<path d="M0 0 C2.5 1.75 2.5 1.75 5 4 C5 5.32 5 6.64 5 8 C6.7763932 9.0745356 6.7763932 9.0745356 8 9 C9.66821323 9.32550502 11.33499557 9.65846063 13 10 C12.34 10.66 11.68 11.32 11 12 C11.66 13.32 12.32 14.64 13 16 C7.05925113 14.99667352 2.79813482 13.69087294 -2 10 C-0.68 9.34 0.64 8.68 2 8 C1.34 7.01 0.68 6.02 0 5 C-0.33 4.34 -0.66 3.68 -1 3 C-0.67 2.01 -0.34 1.02 0 0 Z " fill="#141E2A" transform="translate(269,153)"/>
<path d="M0 0 C1.11170388 3.33511163 0.82428809 5.61126007 0 9 C0 9.33 0 9.66 0 10 C3.05270463 10.15811388 3.05270463 10.15811388 6 9 C4.6062718 13.43458973 2.39417765 15.87378374 -1 19 C-3.51083114 17.74458443 -3.87125446 16.49936512 -5 14 C-5.61875 14.20625 -6.2375 14.4125 -6.875 14.625 C-7.57625 14.74875 -8.2775 14.8725 -9 15 C-9.66 14.34 -10.32 13.68 -11 13 C-6.25 10 -6.25 10 -4 10 C-2.26337666 6.77484237 -1.1094072 3.48670834 0 0 Z " fill="#2A323C" transform="translate(343,221)"/>
<path d="M0 0 C3.82792868 1.5595265 6.36359864 3.83631836 9 7 C8.875 9.125 8.875 9.125 8 11 C7.67 11.99 7.34 12.98 7 14 C6.34 14 5.68 14 5 14 C4.67 13.01 4.34 12.02 4 11 C0.99152582 9.77479736 0.99152582 9.77479736 -2 9 C-2.6875 6.75 -2.6875 6.75 -3 4 C-1.5625 1.6875 -1.5625 1.6875 0 0 Z " fill="#17202B" transform="translate(137,77)"/>
<path d="M0 0 C4.5862069 1.44827586 4.5862069 1.44827586 6.3125 3.75 C7.17450101 6.57109421 7.13329111 9.06759551 7 12 C5.68 12.33 4.36 12.66 3 13 C2.67 14.32 2.34 15.64 2 17 C0.3709322 12.20862412 -0.20577428 8.94367454 1 4 C-1.31 4.33 -3.62 4.66 -6 5 C-6.33 4.34 -6.66 3.68 -7 3 C-6.21625 2.87625 -5.4325 2.7525 -4.625 2.625 C-1.85942178 2.20882007 -1.85942178 2.20882007 0 0 Z " fill="#141E2B" transform="translate(301,120)"/>
<path d="M0 0 C0.33 0 0.66 0 1 0 C0.835 1.134375 0.67 2.26875 0.5 3.4375 C-0.35427008 10.92138718 -0.07770224 18.48015007 0 26 C0.99 26 1.98 26 3 26 C3.33 24.02 3.66 22.04 4 20 C4.66 20 5.32 20 6 20 C6 16.7 6 13.4 6 10 C6.33 10 6.66 10 7 10 C7.33 15.61 7.66 21.22 8 27 C7.34 27 6.68 27 6 27 C6 26.01 6 25.02 6 24 C5.34 24 4.68 24 4 24 C3.67 25.65 3.34 27.3 3 29 C2.01 29.33 1.02 29.66 0 30 C-1.66732298 24.91863474 -2.31166865 20.36517237 -2.25 15 C-2.25773438 14.32710937 -2.26546875 13.65421875 -2.2734375 12.9609375 C-2.25525057 8.25052382 -1.45200533 4.42515911 0 0 Z " fill="#3A4049" transform="translate(255,117)"/>
<path d="M0 0 C0.66 0.99 1.32 1.98 2 3 C2.99 3 3.98 3 5 3 C5.66 3.33 6.32 3.66 7 4 C8.66619446 4.0396713 10.33391013 4.04384447 12 4 C11.0022242 6.99332739 10.2477975 7.94766315 8 10 C9.32 9.34 10.64 8.68 12 8 C12 8.99 12 9.98 12 11 C5.375 12 5.375 12 2 12 C2.33 10.35 2.66 8.7 3 7 C2.01 6.67 1.02 6.34 0 6 C-0.33 5.34 -0.66 4.68 -1 4 C-1.66 4 -2.32 4 -3 4 C-3 3.34 -3 2.68 -3 2 C-3.66 1.67 -4.32 1.34 -5 1 C-2 0 -2 0 0 0 Z " fill="#131D29" transform="translate(126,108)"/>
<path d="M0 0 C3.3472558 3.00098796 5.42369047 5.76885336 7 10 C6.6875 13.875 6.6875 13.875 6 17 C5.01 16.34 4.02 15.68 3 15 C3.33 13.68 3.66 12.36 4 11 C3.01 11 2.02 11 1 11 C1 9.35 1 7.7 1 6 C0.01 6.495 0.01 6.495 -1 7 C-1 8.32 -1 9.64 -1 11 C-1.66 11 -2.32 11 -3 11 C-4.03789581 9.35666496 -5.03567924 7.68756133 -6 6 C-6.66 5.34 -7.32 4.68 -8 4 C-7.34 4 -6.68 4 -6 4 C-5.67 3.34 -5.34 2.68 -5 2 C-4.01 2.33 -3.02 2.66 -2 3 C-2 3.66 -2 4.32 -2 5 C-1.34 4.67 -0.68 4.34 0 4 C0 2.68 0 1.36 0 0 Z " fill="#232B35" transform="translate(345,28)"/>
<path d="M0 0 C2.97 0.495 2.97 0.495 6 1 C5.67 2.65 5.34 4.3 5 6 C4.01 6 3.02 6 2 6 C1.04975021 9.69541586 1.04975021 12.30458414 2 16 C-1.875 14.25 -1.875 14.25 -3 12 C-3.06950541 10.45976004 -3.08452357 8.91665012 -3.0625 7.375 C-3.05347656 6.55773437 -3.04445313 5.74046875 -3.03515625 4.8984375 C-3.02355469 4.27195312 -3.01195313 3.64546875 -3 3 C-2.01 2.67 -1.02 2.34 0 2 C0 1.34 0 0.68 0 0 Z " fill="#17212B" transform="translate(113,108)"/>
<path d="M0 0 C2.43929746 1.92576115 4.80090595 3.80090595 7 6 C6.01 6.66 5.02 7.32 4 8 C3.01 7.67 2.02 7.34 1 7 C1.61875 7.61875 2.2375 8.2375 2.875 8.875 C4.25 10.25 5.625 11.625 7 13 C5.296875 13.71484375 5.296875 13.71484375 3 14 C0.640625 12.56640625 0.640625 12.56640625 -1.75 10.5625 C-2.54921875 9.90378906 -3.3484375 9.24507812 -4.171875 8.56640625 C-4.77515625 8.04949219 -5.3784375 7.53257812 -6 7 C-5.36578125 6.72414062 -4.7315625 6.44828125 -4.078125 6.1640625 C-1.30455568 4.6104466 -0.93392216 2.95742018 0 0 Z " fill="#2E353F" transform="translate(98,228)"/>
<path d="M0 0 C0.639375 0.268125 1.27875 0.53625 1.9375 0.8125 C5.25097121 2.09731537 8.60357966 3.1186999 12.01171875 4.12109375 C14 5 14 5 16 8 C15.05125 8.12375 14.1025 8.2475 13.125 8.375 C9.91332809 8.71687177 9.91332809 8.71687177 8 11 C7.01 9.35 6.02 7.7 5 6 C5.33 5.67 5.66 5.34 6 5 C5.01 4.67 4.02 4.34 3 4 C2.67 4.66 2.34 5.32 2 6 C0 3 0 3 0 0 Z M2 10 C4.9375 10.375 4.9375 10.375 8 11 C8.33 11.66 8.66 12.32 9 13 C6.69 12.34 4.38 11.68 2 11 C2 10.67 2 10.34 2 10 Z " fill="#27303B" transform="translate(274,158)"/>
<path d="M0 0 C0.33 0.66 0.66 1.32 1 2 C0.01 2 -0.98 2 -2 2 C-1.67 2.66 -1.34 3.32 -1 4 C-1.99 4.66 -2.98 5.32 -4 6 C-4 6.66 -4 7.32 -4 8 C-4.66 8 -5.32 8 -6 8 C-6.66 8.66 -7.32 9.32 -8 10 C-8 9.34 -8 8.68 -8 8 C-9.32 8 -10.64 8 -12 8 C-11.8125 5.6875 -11.8125 5.6875 -11 3 C-7.38920743 0.00820044 -4.60388896 -0.32120156 0 0 Z " fill="#17212B" transform="translate(30,81)"/>
<path d="M0 0 C0 0.99 0 1.98 0 3 C-2.31 3.33 -4.62 3.66 -7 4 C-7 4.99 -7 5.98 -7 7 C-8.98567708 6.96744792 -10.97135417 6.93489583 -12.95703125 6.90234375 C-15.20305461 6.91736783 -15.20305461 6.91736783 -18 8 C-16.79539911 4.25235277 -14.49089391 2.5889638 -11.0859375 0.75 C-7.43863872 -0.56138833 -3.81652532 -0.31155309 0 0 Z " fill="#131D28" transform="translate(298,117)"/>
<path d="M0 0 C3.0625 0.1875 3.0625 0.1875 5.0625 2.1875 C5.1875 4.8125 5.1875 4.8125 5.0625 7.1875 C3.0825 8.1775 3.0825 8.1775 1.0625 9.1875 C0.7325 8.8575 0.4025 8.5275 0.0625 8.1875 C-0.2675 8.8475 -0.5975 9.5075 -0.9375 10.1875 C-1.9275 9.8575 -2.9175 9.5275 -3.9375 9.1875 C-3.6075 8.5275 -3.2775 7.8675 -2.9375 7.1875 C-2.2775 7.1875 -1.6175 7.1875 -0.9375 7.1875 C-1.9275 5.2075 -2.9175 3.2275 -3.9375 1.1875 C-2.9375 0.1875 -2.9375 0.1875 0 0 Z " fill="#F7F8F8" transform="translate(292.9375,124.8125)"/>
<path d="M0 0 C0.66 0.99 1.32 1.98 2 3 C-1.31215696 3.74855961 -4.30652867 4.10772181 -7.69848633 4.02172852 C-9.0493206 3.99158409 -9.0493206 3.99158409 -10.42744446 3.96083069 C-11.3859581 3.93379562 -12.34447174 3.90676056 -13.33203125 3.87890625 C-14.32377853 3.85529526 -15.31552582 3.83168427 -16.33732605 3.80735779 C-19.49587178 3.73096281 -22.65415727 3.6468346 -25.8125 3.5625 C-27.95766968 3.50925512 -30.10285195 3.4565149 -32.24804688 3.40429688 C-37.49885791 3.27538048 -42.74947662 3.1401192 -48 3 C-48 2.67 -48 2.34 -48 2 C-32.16 2 -16.32 2 0 2 C0 1.34 0 0.68 0 0 Z " fill="#1B2631" transform="translate(188,115)"/>
<path d="M0 0 C0.33 0 0.66 0 1 0 C1.02505615 1.14065918 1.0501123 2.28131836 1.07592773 3.45654297 C1.16994293 7.67964341 1.27017787 11.90257709 1.37231445 16.12548828 C1.41568565 17.95487575 1.45735911 19.78430427 1.49731445 21.61376953 C1.55496418 24.24003486 1.61867365 26.8660931 1.68359375 29.4921875 C1.70030624 30.31306854 1.71701874 31.13394958 1.73423767 31.97970581 C1.7431387 36.1233696 1.7431387 36.1233696 3 40 C3.66 40.33 4.32 40.66 5 41 C5.33 41.66 5.66 42.32 6 43 C4.33388095 43.042721 2.66617115 43.04063832 1 43 C0 42 0 42 -0.11352539 38.03100586 C-0.1133662 36.25894393 -0.10766785 34.4868774 -0.09765625 32.71484375 C-0.0962413 31.78402481 -0.09482635 30.85320587 -0.09336853 29.8941803 C-0.08775172 26.90858809 -0.0751964 23.92306971 -0.0625 20.9375 C-0.05748716 18.91862087 -0.05292388 16.89974057 -0.04882812 14.88085938 C-0.03777683 9.92054428 -0.02050095 4.96028468 0 0 Z " fill="#242B35" transform="translate(344,50)"/>
<path d="M0 0 C-1.8125 2.5 -1.8125 2.5 -4 5 C-4.99 5 -5.98 5 -7 5 C-7 5.66 -7 6.32 -7 7 C-7.66 7 -8.32 7 -9 7 C-9 6.34 -9 5.68 -9 5 C-12.11785113 5.64644661 -12.11785113 5.64644661 -13 8 C-14.65 8 -16.3 8 -18 8 C-13.28501716 2.49918668 -7.32044291 -0.73204429 0 0 Z " fill="#252E37" transform="translate(112,20)"/>
<path d="M0 0 C0.33 0.99 0.66 1.98 1 3 C1.66 3 2.32 3 3 3 C3.66 3.66 4.32 4.32 5 5 C5.66 5.33 6.32 5.66 7 6 C6.01 8.64 5.02 11.28 4 14 C1.74754119 11.31158141 0.11786042 9.35358125 -1 6 C-1.33 6.99 -1.66 7.98 -2 9 C-2.6875 7.3125 -2.6875 7.3125 -3 5 C-1.5625 2.25 -1.5625 2.25 0 0 Z " fill="#222A35" transform="translate(259,110)"/>
<path d="M0 0 C0.33 0 0.66 0 1 0 C1 1.98 1 3.96 1 6 C1.66 6 2.32 6 3 6 C3.185625 5.071875 3.185625 5.071875 3.375 4.125 C4 2 4 2 6 0 C6.66 0.99 7.32 1.98 8 3 C7.01 3.66 6.02 4.32 5 5 C5 5.66 5 6.32 5 7 C5.66 7.33 6.32 7.66 7 8 C6.34 8 5.68 8 5 8 C5 8.66 5 9.32 5 10 C6.65 9.67 8.3 9.34 10 9 C9.67 9.66 9.34 10.32 9 11 C5.7171341 11.36795695 4.41336988 11.3231932 1.76171875 9.25 C1.07722656 8.5075 0.39273438 7.765 -0.3125 7 C-1.00988281 6.2575 -1.70726562 5.515 -2.42578125 4.75 C-2.94527344 4.1725 -3.46476563 3.595 -4 3 C-3.34 2.67 -2.68 2.34 -2 2 C-1.34 2.33 -0.68 2.66 0 3 C0 2.01 0 1.02 0 0 Z " fill="#272D36" transform="translate(141,85)"/>
<path d="M0 0 C1.32 0 2.64 0 4 0 C4.33 1.32 4.66 2.64 5 4 C5.99 4 6.98 4 8 4 C7.67 5.65 7.34 7.3 7 9 C4.625 9.625 4.625 9.625 2 10 C0 8 0 8 -0.1953125 6.0546875 C-0.13020833 4.03645833 -0.06510417 2.01822917 0 0 Z " fill="#1B242E" transform="translate(87,48)"/>
<path d="M0 0 C1.875 1.5 1.875 1.5 3 3 C2.34 3.66 1.68 4.32 1 5 C1 5.66 1 6.32 1 7 C-2 9 -2 9 -4.1875 8.625 C-4.785625 8.41875 -5.38375 8.2125 -6 8 C-6 7.01 -6 6.02 -6 5 C-5.360625 4.71125 -4.72125 4.4225 -4.0625 4.125 C-1.84793921 3.17176549 -1.84793921 3.17176549 -1 1 C-2.0725 1.350625 -3.145 1.70125 -4.25 2.0625 C-8.92307692 3.23076923 -8.92307692 3.23076923 -12 2 C-7.8549309 0.42092606 -4.4448552 -0.4938728 0 0 Z " fill="#303743" transform="translate(290,92)"/>
<path d="M0 0 C2.625 0.375 2.625 0.375 5 1 C5.042721 2.66611905 5.04063832 4.33382885 5 6 C4 7 4 7 1.4375 7.0625 C0.2309375 7.0315625 0.2309375 7.0315625 -1 7 C-1.625 4.625 -1.625 4.625 -2 2 C-1.34 1.34 -0.68 0.68 0 0 Z " fill="#F2F7FA" transform="translate(49,179)"/>
<path d="M0 0 C0.33 0.66 0.66 1.32 1 2 C0.0625 4.125 0.0625 4.125 -1 6 C-1.66 6 -2.32 6 -3 6 C-3.33 6.99 -3.66 7.98 -4 9 C-6.0625 9.6875 -6.0625 9.6875 -8 10 C-8.33 11.32 -8.66 12.64 -9 14 C-9.66 14 -10.32 14 -11 14 C-11.33 14.66 -11.66 15.32 -12 16 C-12.33 15.01 -12.66 14.02 -13 13 C-8.71 8.71 -4.42 4.42 0 0 Z " fill="#EEF0F2" transform="translate(131,168)"/>
<path d="M0 0 C2.4375 0.75 2.4375 0.75 5 2 C5.75 3.875 5.75 3.875 6 6 C6.185625 6.7425 6.37125 7.485 6.5625 8.25 C6.7790625 9.11625 6.7790625 9.11625 7 10 C5.35 10.33 3.7 10.66 2 11 C0.80712589 7.12315913 0 4.08378077 0 0 Z " fill="#131D27" transform="translate(264,151)"/>
<path d="M0 0 C2.875 -0.125 2.875 -0.125 6 0 C6.66 0.66 7.32 1.32 8 2 C7.01 2.495 7.01 2.495 6 3 C6.66 3.66 7.32 4.32 8 5 C8.99 6.485 8.99 6.485 10 8 C7.00519083 8.8723412 4.36424089 9.10829766 1.25 9.0625 C0.45078125 9.05347656 -0.3484375 9.04445312 -1.171875 9.03515625 C-1.77515625 9.02355469 -2.3784375 9.01195312 -3 9 C-2.38125 8.54625 -1.7625 8.0925 -1.125 7.625 C1.05919833 6.02891081 1.05919833 6.02891081 3 4 C3 3.34 3 2.68 3 2 C2.01 1.34 1.02 0.68 0 0 Z " fill="#323945" transform="translate(290,139)"/>
<path d="M0 0 C1.2065625 0.0309375 1.2065625 0.0309375 2.4375 0.0625 C3.0625 2.4375 3.0625 2.4375 3.4375 5.0625 C2.7775 5.7225 2.1175 6.3825 1.4375 7.0625 C-1.1875 6.6875 -1.1875 6.6875 -3.5625 6.0625 C-3.605221 4.39638095 -3.60313832 2.72867115 -3.5625 1.0625 C-2.5625 0.0625 -2.5625 0.0625 0 0 Z " fill="#ECF0F3" transform="translate(73.5625,135.9375)"/>
<path d="M0 0 C0 1.65 0 3.3 0 5 C-2.375 5.625 -2.375 5.625 -5 6 C-5.66 5.34 -6.32 4.68 -7 4 C-7 2.68 -7 1.36 -7 0 C-4.3333581 -1.33332095 -2.83319697 -0.67102033 0 0 Z " fill="#E6EBED" transform="translate(125,113)"/>
<path d="M0 0 C2.375 -0.125 2.375 -0.125 5 0 C5.66 0.66 6.32 1.32 7 2 C6.625 4.125 6.625 4.125 6 6 C4.34385343 6.38218767 2.67542976 6.71395102 1 7 C0 6 0 6 -0.0625 2.9375 C-0.041875 1.968125 -0.02125 0.99875 0 0 Z " fill="#E6E9ED" transform="translate(26,88)"/>
<path d="M0 0 C-0.99 0 -1.98 0 -3 0 C-3 1.32 -3 2.64 -3 4 C-9.28571429 6.42857143 -9.28571429 6.42857143 -13 5 C-8.69993829 0.34159981 -6.26860113 -2.01490751 0 0 Z " fill="#303741" transform="translate(124,104)"/>
<path d="M0 0 C0.66 0.99 1.32 1.98 2 3 C0.68 3.33 -0.64 3.66 -2 4 C-2 5.65 -2 7.3 -2 9 C-3.65 9.33 -5.3 9.66 -7 10 C-7 10.99 -7 11.98 -7 13 C-8.32 12.34 -9.64 11.68 -11 11 C-7.37 7.37 -3.74 3.74 0 0 Z " fill="#343B43" transform="translate(73,75)"/>
<path d="M0 0 C1.32 0 2.64 0 4 0 C4.0825 0.61875 4.165 1.2375 4.25 1.875 C4.81258459 4.18437567 4.81258459 4.18437567 7.0625 5.25 C7.701875 5.4975 8.34125 5.745 9 6 C7.10871658 7.89128342 4.42932274 7.2366852 1.91015625 7.328125 C0.96462891 7.16570312 0.96462891 7.16570312 0 7 C-0.66 6.01 -1.32 5.02 -2 4 C-1 1 -1 1 0 0 Z " fill="#161F29" transform="translate(70,144)"/>
<path d="M0 0 C1.11241681 3.33725042 1.08987444 5.6465402 0 9 C-2.6012063 12.25150787 -5.07417129 13.69139043 -9 15 C-9.66 14.34 -10.32 13.68 -11 13 C-6.25 10 -6.25 10 -4 10 C-2.26337666 6.77484237 -1.1094072 3.48670834 0 0 Z " fill="#363E45" transform="translate(343,221)"/>
<path d="M0 0 C0.99 0.66 1.98 1.32 3 2 C3.66 1.67 4.32 1.34 5 1 C5.125 3.375 5.125 3.375 5 6 C4.34 6.66 3.68 7.32 3 8 C-0.125 7.625 -0.125 7.625 -3 7 C-2.625 4.0625 -2.625 4.0625 -2 1 C-1.34 0.67 -0.68 0.34 0 0 Z " fill="#161E2B" transform="translate(298,138)"/>
<path d="M0 0 C0.99 0.33 1.98 0.66 3 1 C2.75 3.875 2.75 3.875 2 7 C-0.0625 8.375 -0.0625 8.375 -2 9 C-2.99 8.34 -3.98 7.68 -5 7 C-4.6189482 4.23737447 -4.16402868 3.15856106 -2.125 1.1875 C-1.42375 0.795625 -0.7225 0.40375 0 0 Z " fill="#151D2A" transform="translate(282,126)"/>
<path d="M0 0 C2.0625 1.6875 2.0625 1.6875 4 4 C3.75 6.75 3.75 6.75 3 9 C2.01 9 1.02 9 0 9 C-0.99 10.485 -0.99 10.485 -2 12 C-2 11.34 -2 10.68 -2 10 C-3.32 10.33 -4.64 10.66 -6 11 C-6.33 9.35 -6.66 7.7 -7 6 C-4.03 6.495 -4.03 6.495 -1 7 C-1.020625 6.030625 -1.04125 5.06125 -1.0625 4.0625 C-1 1 -1 1 0 0 Z " fill="#2F3740" transform="translate(125,111)"/>
<path d="M0 0 C2.64 0.66 5.28 1.32 8 2 C7.01 2.495 7.01 2.495 6 3 C6.33 4.65 6.66 6.3 7 8 C6.34 8 5.68 8 5 8 C5 8.66 5 9.32 5 10 C3.68 9.67 2.36 9.34 1 9 C1.99 7.68 2.98 6.36 4 5 C2.68 5 1.36 5 0 5 C0 3.35 0 1.7 0 0 Z " fill="#1F2831" transform="translate(105,234)"/>
<path d="M0 0 C0.66 0 1.32 0 2 0 C2.125 2.875 2.125 2.875 2 6 C1.34 6.66 0.68 7.32 0 8 C-0.71408334 9.98356483 -1.38617742 11.98315437 -2 14 C-2.33 14 -2.66 14 -3 14 C-3.29341888 8.32723489 -3.00559652 5.00932754 0 0 Z " fill="#323941" transform="translate(64,130)"/>
<path d="M0 0 C0.99 0 1.98 0 3 0 C2.34 2.97 1.68 5.94 1 9 C-0.32 9.33 -1.64 9.66 -3 10 C-3.33 7.69 -3.66 5.38 -4 3 C-3.34 3 -2.68 3 -2 3 C-1.67 2.34 -1.34 1.68 -1 1 C-0.67 0.67 -0.34 0.34 0 0 Z " fill="#131B29" transform="translate(36,91)"/>
<path d="M0 0 C0.33 0.66 0.66 1.32 1 2 C1.94875 1.814375 2.8975 1.62875 3.875 1.4375 C7 1 7 1 9 2 C9.1875 4.375 9.1875 4.375 9 7 C8.01 7.66 7.02 8.32 6 9 C6 8.34 6 7.68 6 7 C5.01 6.67 4.02 6.34 3 6 C3 5.34 3 4.68 3 4 C2.01 3.67 1.02 3.34 0 3 C0 2.01 0 1.02 0 0 Z " fill="#2A333C" transform="translate(17,87)"/>
<path d="M0 0 C0.99 0 1.98 0 3 0 C3 1.32 3 2.64 3 4 C0.33333333 5.33333333 -2.33333333 6.66666667 -5 8 C-5.99 7.01 -6.98 6.02 -8 5 C-6.35 4.01 -4.7 3.02 -3 2 C-3 2.66 -3 3.32 -3 4 C-2.34 4 -1.68 4 -1 4 C-0.67 2.68 -0.34 1.36 0 0 Z " fill="#141C28" transform="translate(123,169)"/>
<path d="M0 0 C1.65 1.65 3.3 3.3 5 5 C3.125 10.75 3.125 10.75 2 13 C0.68 11.68 -0.64 10.36 -2 9 C-0.68 8.67 0.64 8.34 2 8 C1.34 7.01 0.68 6.02 0 5 C-0.33 4.34 -0.66 3.68 -1 3 C-0.67 2.01 -0.34 1.02 0 0 Z " fill="#28323B" transform="translate(269,153)"/>
<path d="M0 0 C6.75 -0.125 6.75 -0.125 9 1 C9 1.66 9 2.32 9 3 C7.8553125 3.4021875 7.8553125 3.4021875 6.6875 3.8125 C4.12619116 4.94424112 2.80307062 5.91223401 1 8 C0.34 7.67 -0.32 7.34 -1 7 C0.15173355 4.53199953 1.04783565 2.95216435 3 1 C2.01 0.67 1.02 0.34 0 0 Z " fill="#212935" transform="translate(354,92)"/>
<path d="M0 0 C0.99 1.32 1.98 2.64 3 4 C2.34 4 1.68 4 1 4 C0.67 4.66 0.34 5.32 0 6 C0.66 6.33 1.32 6.66 2 7 C2 7.66 2 8.32 2 9 C-1.40320742 7.98823563 -2.75725331 7.35156418 -4.8125 4.375 C-5.204375 3.59125 -5.59625 2.8075 -6 2 C-3.525 2.99 -3.525 2.99 -1 4 C-1.33 3.01 -1.66 2.02 -2 1 C-1.34 0.67 -0.68 0.34 0 0 Z " fill="#29313A" transform="translate(68,142)"/>
<path d="M0 0 C-2.07019495 2.07019495 -3.93828837 3.16936137 -6.5 4.5625 C-7.2940625 4.99691406 -8.088125 5.43132812 -8.90625 5.87890625 C-10.26112369 6.60437034 -11.62537835 7.31268917 -13 8 C-13.33 7.01 -13.66 6.02 -14 5 C-9.10663008 1.62901183 -5.97562839 -0.16150347 0 0 Z " fill="#2A3138" transform="translate(284,101)"/>
<path d="M0 0 C0.66 0.33 1.32 0.66 2 1 C1.88590407 2.45922693 1.75834456 3.91740598 1.625 5.375 C1.55539062 6.18710938 1.48578125 6.99921875 1.4140625 7.8359375 C1 10 1 10 -1 12 C-1.66 11.01 -2.32 10.02 -3 9 C-2.34 9 -1.68 9 -1 9 C-1.66 7.35 -2.32 5.7 -3 4 C-2.34 4 -1.68 4 -1 4 C-0.67 2.68 -0.34 1.36 0 0 Z " fill="#222A36" transform="translate(350,218)"/>
<path d="M0 0 C0.99 0.33 1.98 0.66 3 1 C3 3.64 3 6.28 3 9 C2.01 9.495 2.01 9.495 1 10 C1 8.02 1 6.04 1 4 C-1.31 4.33 -3.62 4.66 -6 5 C-6.33 4.34 -6.66 3.68 -7 3 C-6.21625 2.87625 -5.4325 2.7525 -4.625 2.625 C-1.85942178 2.20882007 -1.85942178 2.20882007 0 0 Z " fill="#121C27" transform="translate(301,120)"/>
<path d="M0 0 C2.35964273 0.40683495 3.85934088 0.89814339 5.8125 2.3125 C7 4 7 4 6.6875 6.1875 C6.460625 6.785625 6.23375 7.38375 6 8 C5.34 7.34 4.68 6.68 4 6 C3.01 6 2.02 6 1 6 C1 5.01 1 4.02 1 3 C0.67 2.67 0.34 2.34 0 2 C0 1.34 0 0.68 0 0 Z " fill="#262F39" transform="translate(126,105)"/>
<path d="M0 0 C0.226875 0.5775 0.45375 1.155 0.6875 1.75 C2.33038023 4.5663661 4.39533227 6.08077114 7 8 C5.3125 8.8125 5.3125 8.8125 3 9 C0.25 6.5625 0.25 6.5625 -2 4 C-1.34 2.68 -0.68 1.36 0 0 Z " fill="#242A36" transform="translate(98,233)"/>
<path d="M0 0 C0.99 0.33 1.98 0.66 3 1 C5.14255793 0.61067144 5.14255793 0.61067144 7 0 C7.75 1.75 7.75 1.75 8 4 C6.0625 6.25 6.0625 6.25 4 8 C3.67 7.01 3.34 6.02 3 5 C2.02308143 3.31970006 1.02611949 1.65071396 0 0 Z " fill="#151D2B" transform="translate(90,227)"/>
<path d="M0 0 C0 0.66 0 1.32 0 2 C-0.99 2.495 -0.99 2.495 -2 3 C-2.33 3.99 -2.66 4.98 -3 6 C-5.375 6.625 -5.375 6.625 -8 7 C-8.66 6.34 -9.32 5.68 -10 5 C-8.71186658 4.16121545 -7.41936744 3.32913217 -6.125 2.5 C-5.40570313 2.0359375 -4.68640625 1.571875 -3.9453125 1.09375 C-2 0 -2 0 0 0 Z " fill="#2B323C" transform="translate(278,95)"/>
<path d="M0 0 C1.32 0.66 2.64 1.32 4 2 C3.525625 2.7425 3.05125 3.485 2.5625 4.25 C1.22130673 6.61050015 0.487688 8.36648477 0 11 C-1.32 9.35 -2.64 7.7 -4 6 C-2.68 5.34 -1.36 4.68 0 4 C0 2.68 0 1.36 0 0 Z " fill="#252D36" transform="translate(134,74)"/>
<path d="M0 0 C-2.25179309 1.25099616 -4.07754828 2.0147711 -6.625 2.5 C-9.17526091 2.81108239 -9.17526091 2.81108239 -11 5 C-12.31647119 5.69937532 -13.65022151 6.36729133 -15 7 C-15.99 7.495 -15.99 7.495 -17 8 C-15.78486238 4.21957184 -13.45119105 2.59948402 -10.01953125 0.75 C-6.60919229 -0.51650886 -3.6026069 -0.25281452 0 0 Z " fill="#3A4148" transform="translate(296,116)"/>
<path d="M0 0 C1.32 0.33 2.64 0.66 4 1 C2.02 3.31 0.04 5.62 -2 8 C-2.99 7.34 -3.98 6.68 -5 6 C-3.35 4.02 -1.7 2.04 0 0 Z " fill="#F1F3F4" transform="translate(65,78)"/>
<path d="M0 0 C1.125 3.75 1.125 3.75 0 6 C1.32 5.67 2.64 5.34 4 5 C1.94766315 7.2477975 0.99332739 8.0022242 -2 9 C-3.5 7.625 -3.5 7.625 -5 6 C-5 5.34 -5 4.68 -5 4 C-4.0409375 3.8453125 -4.0409375 3.8453125 -3.0625 3.6875 C-2.381875 3.460625 -1.70125 3.23375 -1 3 C-0.67 2.01 -0.34 1.02 0 0 Z " fill="#323A46" transform="translate(54,182)"/>
<path d="M0 0 C1.485 0.99 1.485 0.99 3 2 C5.11280345 2.63292383 5.11280345 2.63292383 7 3 C4.03 5.475 4.03 5.475 1 8 C0.34 7.34 -0.32 6.68 -1 6 C-1 2 -1 2 0 0 Z " fill="#1D252F" transform="translate(71,80)"/>
<path d="M0 0 C2.68478605 1.98440708 3.03631971 3.15645412 3.8125 6.5 C4 10 4 10 2 13 C-0.12229299 9.5044586 -0.12229299 9.5044586 0.5 6.9375 C0.665 6.298125 0.83 5.65875 1 5 C0.34 4.01 -0.32 3.02 -1 2 C-0.67 1.34 -0.34 0.68 0 0 Z " fill="#343C45" transform="translate(348,32)"/>
<path d="M0 0 C0.99 0.33 1.98 0.66 3 1 C1.70700306 3.88437779 0.34058637 5.87219421 -2 8 C-2 7.01 -2 6.02 -2 5 C-2.66 5 -3.32 5 -4 5 C-3.67 3.68 -3.34 2.36 -3 1 C-2.01 1 -1.02 1 0 1 C0 0.67 0 0.34 0 0 Z " fill="#141B28" transform="translate(98,30)"/>
<path d="M0 0 C1.0209375 0.433125 1.0209375 0.433125 2.0625 0.875 C5.32893093 2.12597355 8.62846123 3.07447955 12 4 C12 4.33 12 4.66 12 5 C9.03 4.67 6.06 4.34 3 4 C2.67 4.66 2.34 5.32 2 6 C0 3 0 3 0 0 Z " fill="#2E373F" transform="translate(274,158)"/>
<path d="M0 0 C2.97 0 5.94 0 9 0 C8.67 0.99 8.34 1.98 8 3 C5.69 3 3.38 3 1 3 C0.67 2.01 0.34 1.02 0 0 Z " fill="#16202A" transform="translate(180,93)"/>
<path d="M0 0 C3.65316671 1.24976756 4.78065836 1.67098753 7 5 C5.02 5.33 3.04 5.66 1 6 C0.67 4.02 0.34 2.04 0 0 Z " fill="#2E333A" transform="translate(338,23)"/>
<path d="M0 0 C2.52259061 1.97420135 2.9929808 2.96745642 3.6875 6.1875 C3.790625 7.115625 3.89375 8.04375 4 9 C2.68 8.67 1.36 8.34 0 8 C0 5.36 0 2.72 0 0 Z " fill="#303640" transform="translate(304,121)"/>
<path d="M0 0 C2.64 0 5.28 0 8 0 C8.33 0.99 8.66 1.98 9 3 C8.67 3.66 8.34 4.32 8 5 C6.35 5 4.7 5 3 5 C3 4.01 3 3.02 3 2 C2.01 1.34 1.02 0.68 0 0 Z " fill="#2B3540" transform="translate(287,120)"/>
<path d="M0 0 C1.32 0.33 2.64 0.66 4 1 C4.33 2.65 4.66 4.3 5 6 C4.01 6.495 4.01 6.495 3 7 C2.34 6.01 1.68 5.02 1 4 C0.01 3.34 -0.98 2.68 -2 2 C-1.34 2 -0.68 2 0 2 C0 1.34 0 0.68 0 0 Z " fill="#2E353C" transform="translate(186,88)"/>
<path d="M0 0 C0.66 0.99 1.32 1.98 2 3 C0.68 3.33 -0.64 3.66 -2 4 C-2 5.32 -2 6.64 -2 8 C-3.98 8.33 -5.96 8.66 -8 9 C-7.04270084 7.87411986 -6.08412105 6.7493285 -5.125 5.625 C-4.59132813 4.99851562 -4.05765625 4.37203125 -3.5078125 3.7265625 C-2.38567993 2.44163349 -1.20628025 1.20628025 0 0 Z " fill="#CDCFD3" transform="translate(82,78)"/>
<path d="M0 0 C2.475 0.495 2.475 0.495 5 1 C5.33 1.99 5.66 2.98 6 4 C4.02 4.99 4.02 4.99 2 6 C0 3 0 3 0 0 Z " fill="#313A43" transform="translate(89,197)"/>
<path d="M0 0 C0.99 0.33 1.98 0.66 3 1 C2.67 1.66 2.34 2.32 2 3 C1.01 3.33 0.02 3.66 -1 4 C-1.33 4.66 -1.66 5.32 -2 6 C-3.65 6 -5.3 6 -7 6 C-4.74259377 3.66475218 -2.7194239 1.81294927 0 0 Z " fill="#2B343D" transform="translate(101,22)"/>
<path d="M0 0 C0.99 0.33 1.98 0.66 3 1 C3.6875 3.0625 3.6875 3.0625 4 5 C3.34 5 2.68 5 2 5 C2.33 6.32 2.66 7.64 3 9 C2.34 8.67 1.68 8.34 1 8 C0.40644386 5.35139573 0.25790731 2.70802678 0 0 Z M4 2 C6 3 6 3 6 3 Z " fill="#222C34" transform="translate(17,90)"/>
<path d="M0 0 C7.50769231 -0.36923077 7.50769231 -0.36923077 10 1.5 C10.495 2.2425 10.495 2.2425 11 3 C8.36 3.33 5.72 3.66 3 4 C3.66 3.34 4.32 2.68 5 2 C3.35 1.67 1.7 1.34 0 1 C0 0.67 0 0.34 0 0 Z " fill="#1F2831" transform="translate(122,69)"/>
<path d="M0 0 C0.66 0 1.32 0 2 0 C2.66 2.31 3.32 4.62 4 7 C2.68 7 1.36 7 0 7 C-1.125 2.25 -1.125 2.25 0 0 Z " fill="#333B44" transform="translate(94,221)"/>
<path d="M0 0 C0.928125 0.2784375 0.928125 0.2784375 1.875 0.5625 C4.04160178 1.23686176 4.04160178 1.23686176 6 0 C6.33 1.98 6.66 3.96 7 6 C6.01 6 5.02 6 4 6 C1.8125 3 1.8125 3 0 0 Z " fill="#252C34" transform="translate(259,153)"/>
<path d="M0 0 C2.64 0.33 5.28 0.66 8 1 C7.38125 1.2475 6.7625 1.495 6.125 1.75 C3.64931313 3.20628639 3.04874998 4.37812506 2 7 C2 5.68 2 4.36 2 3 C1.01 2.67 0.02 2.34 -1 2 C-0.67 1.34 -0.34 0.68 0 0 Z " fill="#323B45" transform="translate(67,134)"/>
<path d="M0 0 C0.99 0.33 1.98 0.66 3 1 C1.5 3 1.5 3 -1 5 C-3.75871627 5.35800135 -6.20097524 5.18660165 -9 5 C-9 4.67 -9 4.34 -9 4 C-6.69 4 -4.38 4 -2 4 C-2 3.01 -2 2.02 -2 1 C-1.34 0.67 -0.68 0.34 0 0 Z " fill="#3F434C" transform="translate(127,123)"/>
<path d="M0 0 C0.66 0 1.32 0 2 0 C2.33 2.97 2.66 5.94 3 9 C2.67 8.34 2.34 7.68 2 7 C1.01 7 0.02 7 -1 7 C-1.04254356 5.00045254 -1.04080783 2.99958364 -1 1 C-0.67 0.67 -0.34 0.34 0 0 Z " fill="#17212E" transform="translate(344,34)"/>
<path d="M0 0 C0.33 1.32 0.66 2.64 1 4 C0.01 4.33 -0.98 4.66 -2 5 C-2 4.34 -2 3.68 -2 3 C-2.99 3.33 -3.98 3.66 -5 4 C-5.33 3.01 -5.66 2.02 -6 1 C-3 0 -3 0 0 0 Z " fill="#131C28" transform="translate(345,28)"/>
<path d="M0 0 C0.99 0.33 1.98 0.66 3 1 C0.69 3.31 -1.62 5.62 -4 8 C-4.33 7.01 -4.66 6.02 -5 5 C-4.34 5 -3.68 5 -3 5 C-2.87625 4.360625 -2.7525 3.72125 -2.625 3.0625 C-2.41875 2.381875 -2.2125 1.70125 -2 1 C-1.34 0.67 -0.68 0.34 0 0 Z " fill="#3B3F48" transform="translate(123,173)"/>
<path d="M0 0 C0.33 0 0.66 0 1 0 C0.95875 0.9075 0.9175 1.815 0.875 2.75 C0.99531556 5.8782046 1.3914708 7.38614006 3 10 C0.525 9.01 0.525 9.01 -2 8 C-1.125 1.125 -1.125 1.125 0 0 Z " fill="#131D28" transform="translate(64,136)"/>
<path d="M0 0 C0.99 0 1.98 0 3 0 C3.33 2.31 3.66 4.62 4 7 C2.68 6.67 1.36 6.34 0 6 C0 4.02 0 2.04 0 0 Z " fill="#151C27" transform="translate(66,137)"/>
<path d="M0 0 C1.2065625 0.0309375 1.2065625 0.0309375 2.4375 0.0625 C2.7675 1.7125 3.0975 3.3625 3.4375 5.0625 C2.4475 5.5575 2.4475 5.5575 1.4375 6.0625 C1.4375 5.4025 1.4375 4.7425 1.4375 4.0625 C0.7775 3.7325 0.1175 3.4025 -0.5625 3.0625 C-1.5525 2.4025 -2.5425 1.7425 -3.5625 1.0625 C-2.5625 0.0625 -2.5625 0.0625 0 0 Z " fill="#DCE1E6" transform="translate(73.5625,135.9375)"/>
<path d="M0 0 C-0.99 0 -1.98 0 -3 0 C-3 1.32 -3 2.64 -3 4 C-3.99 4.495 -3.99 4.495 -5 5 C-6.5 3.625 -6.5 3.625 -8 2 C-8 1.34 -8 0.68 -8 0 C-4.94736336 -0.98120464 -3.05263664 -0.98120464 0 0 Z " fill="#101926" transform="translate(133,73)"/>
<path d="M0 0 C0.99 0 1.98 0 3 0 C3 0.66 3 1.32 3 2 C3.99 1.67 4.98 1.34 6 1 C5.67 2.32 5.34 3.64 5 5 C4.01 5 3.02 5 2 5 C1.34 3.35 0.68 1.7 0 0 Z " fill="#293039" transform="translate(39,186)"/>
<path d="M0 0 C0.99 0.99 1.98 1.98 3 3 C2.34 4.32 1.68 5.64 1 7 C0.34 7 -0.32 7 -1 7 C-1.66 5.68 -2.32 4.36 -3 3 C-2.01 2.67 -1.02 2.34 0 2 C0 1.34 0 0.68 0 0 Z " fill="#272F38" transform="translate(81,130)"/>
<path d="M0 0 C0.66 0.99 1.32 1.98 2 3 C1.67 3.99 1.34 4.98 1 6 C0.34 6 -0.32 6 -1 6 C-1.33 6.99 -1.66 7.98 -2 9 C-2.6875 7.3125 -2.6875 7.3125 -3 5 C-1.5625 2.25 -1.5625 2.25 0 0 Z " fill="#2A353D" transform="translate(259,110)"/>
<path d="M0 0 C0.99 0 1.98 0 3 0 C3.66 0.66 4.32 1.32 5 2 C0.375 5 0.375 5 -3 5 C-1.125 1.125 -1.125 1.125 0 0 Z " fill="#101A27" transform="translate(344,228)"/>
<path d="M0 0 C2.0625 0.4375 2.0625 0.4375 4 1 C3.01 1 2.02 1 1 1 C0.67 2.98 0.34 4.96 0 7 C-0.66 6.67 -1.32 6.34 -2 6 C-1.125 1.125 -1.125 1.125 0 0 Z " fill="#D0D7D9" transform="translate(49,179)"/>
<path d="M0 0 C0.66 0.66 1.32 1.32 2 2 C-0.97 4.475 -0.97 4.475 -4 7 C-4 5.68 -4 4.36 -4 3 C-3.34 3 -2.68 3 -2 3 C-2 2.34 -2 1.68 -2 1 C-1.34 0.67 -0.68 0.34 0 0 Z " fill="#343C44" transform="translate(130,166)"/>
<path d="M0 0 C0.66 0 1.32 0 2 0 C2.625 2.875 2.625 2.875 3 6 C2.34 6.66 1.68 7.32 1 8 C0.01 7.67 -0.98 7.34 -2 7 C-1.34 7 -0.68 7 0 7 C0 4.69 0 2.38 0 0 Z " fill="#444951" transform="translate(188,159)"/>
<path d="M0 0 C0.33 0 0.66 0 1 0 C1 2.31 1 4.62 1 7 C1.66 7 2.32 7 3 7 C2.34 8.32 1.68 9.64 1 11 C-1.78637633 6.8204355 -0.79562512 4.85331323 0 0 Z " fill="#262B39" transform="translate(130,113)"/>
<path d="M0 0 C1.485 0.99 1.485 0.99 3 2 C2.34 3.65 1.68 5.3 1 7 C0.34 7 -0.32 7 -1 7 C-1.04254356 5.00045254 -1.04080783 2.99958364 -1 1 C-0.67 0.67 -0.34 0.34 0 0 Z " fill="#EBF0F1" transform="translate(257,106)"/>
<path d="M0 0 C1.98 0 3.96 0 6 0 C6.33 0.99 6.66 1.98 7 3 C6.01 4.485 6.01 4.485 5 6 C4.34 5.34 3.68 4.68 3 4 C2.01 3.34 1.02 2.68 0 2 C0 1.34 0 0.68 0 0 Z " fill="#29333B" transform="translate(26,94)"/>
<path d="M0 0 C0.625 1.875 0.625 1.875 1 4 C0.34 4.66 -0.32 5.32 -1 6 C-3.125 5.625 -3.125 5.625 -5 5 C-4.34 4.67 -3.68 4.34 -3 4 C-3.66 3.34 -4.32 2.68 -5 2 C-3.35 1.34 -1.7 0.68 0 0 Z " fill="#3E484D" transform="translate(94,52)"/>
<path d="M0 0 C2 2 2 2 2 4 C1.34 4 0.68 4 0 4 C0 4.66 0 5.32 0 6 C-1.32 5.67 -2.64 5.34 -4 5 C-2.68 3.35 -1.36 1.7 0 0 Z " fill="#2B343F" transform="translate(110,238)"/>
<path d="M0 0 C4 4.625 4 4.625 4 8 C2 6.8125 2 6.8125 0 5 C-0.25 2.3125 -0.25 2.3125 0 0 Z " fill="#29323A" transform="translate(264,146)"/>
<path d="M0 0 C1.65 1.65 3.3 3.3 5 5 C3.35 5.33 1.7 5.66 0 6 C0 4 0 2 0 0 Z " fill="#212B33" transform="translate(138,77)"/>
</svg>
